<?xml version="1.0" encoding="UTF-8"?>
<svg id="Layer_1" data-name="Layer 1" xmlns="http://www.w3.org/2000/svg" viewBox="0 0 540 540">
  <defs>
    <style>
      .cls-1 {
        fill: #fff;
      }
    </style>
  </defs>
  <path class="cls-1" d="M419.26,288.26c-1.05-12.11-15.18-12.27-24-7.27,1.86-9.76-4.38-17.41-14.44-15.97-18.28,2.63-8.9,33.86-4.65,46.06,11.18-2.34,44.43-7.27,43.09-22.82ZM379.07,302.64c-3.17-6.33-6.15-30.28,1.14-32.59,9.98-3.17,8.55,9.99,12.16,12.42,4.86,3.3,14.87-1.7,19.28,5.39,1.48,7.27-28.31,17.73-32.58,14.78Z"/>
  <g>
    <path class="cls-1" d="M425.34,516.44l-2.74-84.9c1.97-1.98,28.1,4.15,24.63-4.06-9.2-11.86-91.38-62.97-93.12-68.48-.43-1.36-.96-7.05,1.62-6.88,4.65-1.28,19.2,3.83,17.66-4.1l-54.15-93.71-.82-78.57,13.75-5.61-56.1-110.83c-1.45-5.54-2.73-15.07-.93-20.27,2.04-5.87,11.89-3.32,13.32-9.9l-11.13-1.21-2.57-12.53c-10.85-.81-.38,16.34-16.42,13.74l1.95,5.43,8.66,4.45-.95,20.29-56.22,110.8c-1.99,8.1,11.89,2.27,13.73,4.09l-.63,80.16c-7.45,24.91-45.36,71.07-48.69,93.71-1.33,9.03,17.89-.52,21.87,8.2l-84.79,76.7,16.58,5.26,2.18,3.3-2.35,74.9h-45.18l-4.1,8.21h376.44l2.76-5.47-34.26-2.72ZM219.97,164.59l53.44-94.37,47.91,95.77h-57.49l-2.71-13.67-8.22,16.41,8.16-49.28c-10.89,5.92-12.07,43.38-19.02,48.02-4.58,1.04-23.58,4.89-22.07-2.88ZM187.18,346.67c-.65-3.21.37-5.26,1.49-8.06,9.03-22.42,40.36-64.41,44.42-84.26,1.96-9.57-1.22-53.44.75-55.39,1.17-1.16,12.89,1.42,13.56-5.57-15.48,1.86-14.47-6.48-13.69-19.19h76.66v73.92h-60.23l-.02,8.2h35.62l7.04,87.71c-6.25,8.53-38.67-3.1-48.09,2.65-4.31-5.43,10.32-55.78,10.93-67.12.29-5.45-.51-4.25-5.46-4.06l-14.27,67.86-48.71,3.31ZM126.95,430.2l54.72-45.19-16.45,46.53c-11.28,1.86-1.33-10.68-2.72-16.42-10.97,15.31-14.42,20.9-35.55,15.08ZM198.12,516.42h-62.97l13.68-5.49c2.99-10.14-11.69-3.44-13.69-5.45l2.75-68.45h56.12l4.11,4.1v75.29ZM198.12,431.55l-24.68-1.41c.05-3.14,16.19-50.99,18.55-55.33,1.76-3.22-.1-4.57,6.13-3.49v60.23ZM274.78,516.42h-27.38v-80.76c0-9.12,17.78-21.21,27.38-20.54v101.3ZM311.91,513.86l-28.92,2.56v-97.19l6.28-3.7c35.55,1.77,22.08,75.52,22.64,98.33ZM348.87,517.96c-3.8,2.65-26.67,3.06-30.29-2.91v-84.87c0-3.95-14.22-17.84-19.01-19.31-13.35-4.1-42.42-3.39-52.24,8.29-1.86,2.22-8.14,14.86-8.14,16.5v80.76h-32.86v-164.26h139.63c4.44,3.35-.04,4.96-4.06,5.48-9.79,1.25-21.48-.94-31.53.02,6.26,10.99,24.05,2.61,33.84,5.83,3.55.91,3.91,3.34,4.49,6.46,3.76,20.35-2.8,50.97.01,72.57l-16.47,1.35,16.47,1.36,2.34,69.44-2.18,3.29ZM338.33,343.39c-3.85-2.86-16.76-50.51-21.11-59.69-1.69-3.57-3.24-8.58-8.19-8.23l20.42,67.13c-.49,5.35-30.49,3.2-31.52,1.53l-6.74-87.81,23.32,2.71,47.81,83.56c-.31,6.33-21.33,2.78-23.99.8ZM356.91,516.42v-82.13l57.48-2.72-13.66,10.92h13.68l2.73,73.93h-60.23ZM398,412.39l1.51,11.01c-19.81,11.27-18.6-10.34-23.15-23.75-1.44-4.22,2.44-7.84-5.75-6.41l4.82,28.85c-1.02,5.69-13.94,4-18.49,3.95l-2.74-57.46,73.89,52.06c-10.61,12.96-22.57,1.45-30.09-8.25Z"/>
    <path class="cls-1" d="M217.28,361.74v56.12h-5.47v-60.23c1.77-.21,5.47,3.63,5.47,4.11Z"/>
    <path class="cls-1" d="M261.1,368.59v8.19c-8.09-.71-18.56,3.07-24.63-4.13.56-8.82,19.33-2.06,24.63-4.06Z"/>
    <polygon class="cls-1" points="217.3 456.18 217.29 491.8 211.79 491.79 211.8 456.18 217.3 456.18"/>
    <path class="cls-1" d="M255.58,207.07l-19.12-2.74c-3.09,10.79,16.74,3.03,19.17,5.45l2.55,28.93,31.83-1.37c10.44-31.91-21.1-87.13-34.43-30.27ZM283,231.71h-19.19c1.22-13.72-4.37-30.56,6.89-41.07,10.47-2.43,14.43,34.07,12.3,41.07Z"/>
    <path class="cls-1" d="M244.65,250.87c-4.03,19.39-14.63,44.19-24.52,61.7-2.11,3.74-2.28,7.95-8.31,6.72-2.3-2.52,22.19-56.54,26.03-63.02,2.09-3.52-.5-6.91,6.8-5.4Z"/>
    <path class="cls-1" d="M296.65,157.77c-9.07-7.18-12.31-23.84-15.62-35-2.81-9.44-7.83-25.88-8.84-35.02-.59-5.4.56-4.02,5.28-3.88,7.84,23.78,18.82,48.57,19.18,73.9Z"/>
  </g>
  <g>
    <path class="cls-1" d="M165.64,248.48l.12,12.87,23.73,5.49c14.74-31.36.91-30.67-23.85-18.36ZM187.34,260.65c-4.54,3.26-11.68-.57-16.45-1.77l-.17-8.02c7.62.8,11.4.99,13.67-6.89,4.68-4.25,9.05,12.31,2.95,16.68Z"/>
    <circle class="cls-1" cx="101.88" cy="407.24" r="8.5"/>
  </g>
</svg>