<?xml version="1.0" encoding="UTF-8"?>
<svg id="Layer_1" data-name="Layer 1" xmlns="http://www.w3.org/2000/svg" viewBox="0 0 540 540">
  <defs>
    <style>
      .cls-1 {
        fill: #c9a36a;
      }
    </style>
  </defs>
  <path class="cls-1" d="M79.67,368.02l.25-59.73-11.38-3.95,3.86-48.89c27.92-1.45,57.67,2.04,85.37.05,19.01-1.36,41.11-12.93,63.51-7.33-9.19-25.9-42.25-31.05-65.32-21.75-4.81-6.39,21.08-41.44,25.38-49.27l4.75-1.11c6.72,4.79,16.77,5.95,23.22,9.71,10.34,6.04,15.26,17.64,26.48,18.88,4.13-35.2,21.68-56.93,58.09-39.93l3.7-36.28,18.12-.07c-21.85-29.35,12.04-74.39,44.46-68.27,16.21,3.06,26.15,19.97,39.01,28.37,1.81-16.63,11.23-32.74,23.64-43.49,15.06,11.75-15.49,21.13-12.67,36.23,41.27-54,97.9-8.32,83.49,47.18h32.68c.1,12.67-.26,25.43.01,38.14.3,14.28,10.5,15.28-11.16,22.2l7.11,273.39-161.01.09-3.98,11.39c-18.39,2.58-36.68-3.78-54.12-4.06-27.69-.44-53.12,4.27-80.22,3.94-10.82-.13-21.11-5.27-32.63-4.09-6.21.64-5.33,9.57-21.61,11.23-49.44,5.04-104.72-6.37-154.17,3.51-7.62-13.75-.33-24.73-.03-37.87.59-26.03-.77-52.21-.16-78.21h65.36ZM439.13,128.34c11.78-1.76,30.71,2.95,41.16-.56,28.7-9.65-9.56-100.31-59.47-48.58-20.63,21.38-12.87,24.45-3.42,49.16,19.96-7.14,27.96-33.93,54.4-21.72l-32.66,21.69ZM324.75,128.38h63.54l-27.65-10.9-19.53,7.25c9.27-27.21,48.08-3.61,65.32,3.63,4.36-4.32-32.94-49.48-43.36-52.83-30.66-9.87-60.11,26.34-38.32,52.85ZM366.51,175.58h150.68c7.91-5.25,7.49-34.28,3.78-40.19l-219.84.23,3.42,38.37c11.2,7.79,49-7.54,58.33,8.85h-50.83v68.99h56.28c7.59,4.42,7.34,52.41,5.31,54.33-3.34,3.18-15.68-6.96-18.2,12.67-5.19,40.52,10.35,93.75,3.79,136.35l148.88-7.28V182.84l-10.89,5.45v165.21h-7.26v-165.21l-5.45-5.45h-118v-7.26ZM242.99,237.28c8.79-20.98,43.22-45.23,23.28-68.67-23.59-7.82-27.11,51.99-30.52,66.84l7.24,1.83ZM292.8,176.62c-.95-1.18-12.94-8.95-13.39-8.31,4.68,33.17-21.11,56.73-39.97,79.84,26.91-4.46,77.83-41.13,53.37-71.54ZM228.5,240.93c9.45-30.87-14.41-52.26-43.65-56.46l-18.02,31.03c26.62-3.43,43.74,7.79,61.67,25.43ZM304.8,251.85l-.06-29.06c-12.85,7.67-19.75,24.05-36.25,25.46-.98,5.97,4.89,3.37,8.98,3.59,9.06.49,18.29-.32,27.32.02ZM191.37,252.76c-6.39.79-35.15,9.9-35.38,15.41,18.51,13.83,43.24,3.28,57.95-10.89-5.89-8.31-14.18-5.55-22.58-4.52ZM274.9,309.11c15.25-31.3,3.33-63.89-35.46-49.97,17.37,20.13,8.22,35.92,3.65,58.04l31.82-8.06ZM155.94,280.89c3.21,49.56,81.69-4.57,68.93-21.8-20.86,16.69-41.45,25.32-68.93,21.8ZM366.51,259.09h-83.51c3.82,14.32,12.72,24.72,3.63,39.94h79.88v-39.94ZM152.29,262.72h-76.25l3.52,38.4,72.69,1.53c-1.56-13.93-7.73-26.44.04-39.93ZM250.32,469.68v-145.24l-18.13,3.61c2.25-19.45,16.93-37.06,8.17-57.21l-8.15-4.5c1.81,11.33-9.07,18.38-10.78,27.39-3.31,17.45-3.43,68.9-3.95,90.45-.69,28.45.88,57.1.15,85.52l32.7-.02ZM86.93,306.29v61.73h92.59l5.45,5.45v88.96l25.44.02,3.59-163.39c-12.71,1.25-21.26,13.75-34.8,14.31-9.5.39-18.3-6.37-28.7-7.09-20.91-1.46-42.61,1.11-63.57.02ZM261.21,462.42h87.14v-156.13c-10.41-1.67-6.03,2.18-7.75,8.41-3.61,13.05-3.69,25.34-3.16,38.77-4.48,5.9-6.57-.07-7.25-5.36-3.87-30.2,12.08-51.41-38.05-41.74-10.51,2.03-18.85,18.69-34.41,14.59l3.48,141.46ZM166.81,371.65H17.94v101.67l76.24-45.43c2.1-8.77-49.52-32.86-58-39.99-5.77-4.85-2.43-4.71,1.73-8.91l65.39,42.32c3.59.23,51.76-35.76,58.93-41.33,3.01-2.34,6.6.12,4.59-8.32ZM177.7,378.91l-63.66,43.46,9.19,14.6c-8.64,2.39-13.5-8.18-21.83-5.88-14.53,4.01-55.76,35.06-68.94,45.82l134.34-3.63-29.03-25.36,39.92,18.14v-87.14Z"/>
  <path class="cls-1" d="M486.35,480.59v10.86c-47.59-3.36-94.47-5.7-141.62,3.61,1.52-6.75,9.48-7.26,15.05-8.51,40.92-9.16,84.88-5.04,126.57-5.96Z"/>
  <circle class="cls-1" cx="203.35" cy="122.89" r="12.88"/>
</svg>