<?xml version="1.0" encoding="UTF-8"?>
<svg id="Layer_1" data-name="Layer 1" xmlns="http://www.w3.org/2000/svg" viewBox="0 0 540 540">
  <defs>
    <style>
      .cls-1 {
        fill: #fff;
      }
    </style>
  </defs>
  <path class="cls-1" d="M183.42,139.6c3.36-.36,10.79-15.92,19.67-19.64,29.46-12.36,52.34,5.25,49.54,35.36,14.23-12.74,22.39-22.14,43.68-19.21l12.9-31.08-22.01,3.1-.03-9.41c24.21,2.96,44.79-12.67,44.03-37.73-15.69,3.01-31.97,15.38-34.62,31.47l-9.12-2.99c-1.77,9.1-9.93,14.92-19.1,15.53-5.61-13.63-1.94-25.83,3.53-38.89,2.2-5.25,11.39-25.89,18.65-15.87l2.97,29.58c4.82.27,3.87-6.13,7.75-9.49,4.8-4.16,31.22-20.74,36.23-15.65,1.31,13.12-1.49,24.16-9.42,34.56,10.78-7.1,37.32,9.3,39.38,9.12,2.25-.2,21.28-31.02,36.08-24.8.89,8.51-.36,15.69-2.95,23.75-4.26,13.27-15.77,16.3-15.89,29.68l23.77-18.69,4.51,6.07c-22.75,2.79-31.66,37.75-1.86,34.6,16.45-1.74,27.89-28.4,16-40.83-.96,15.63-7.31,27.95-22.2,34.41-14.28-2.33,7.69-10.68,11.37-16.98,5.04-8.64,1.8-20.26,10.85-26.82,20.39,16.72,10.82,44.84-10.99,54.96,13.84,8.13,35.68,9.92,37.76,29.89,9.12-5.14,16.31-14.71,28.26-12.54-2.59,6.54-10.31,6.33-15.87,10.83-8.4,6.8-20.93,21.6-1.7,20.58,16.48-.87,23.78-34.72,30.15-28.27-6.35,11.97-10.96,27.86-25.03,33.17-4.89,1.85-12.86.27-15.36,1.87-1.33.86-4.54,14.98-7.25,19.5-17.12,28.52-37.02,17.57-59.26,2.03l6.29,34.59c44.46-33.66,92.44.7,84.6,54.77-4.47,30.84-29.19,36.24-56.32,33.32l37.88,26.55c12.57,17.96-17.33,13.36-28.51,9.63-17.13-5.71-41.45-29.62-18.82-42.45-27.5-8.48-40.34-38.6-28.26-64.48l-6.3,1.57c-2.26-3.14,5.85-20.97,6.02-27.08.5-18.1-23.78-49.71-40.63-29.59l15.63,7.9-6.17,11.01c17.11-13.54,27.72,5.45,23.85,22.26l-11.3,2.93c30.45,35.15-41.96,27.78-47.23,3.13h-6.17c-1.4,9.4-14.36,17.05-23.44,15.82l-17.48-15.82c-4.36,38.96-41.12,51.04-75.51,50.33l8.24,15.88c26.99,3.2,55.57-9.15,61.34-37.51,13.31-2.6,25.95,2.92,37.31,9.03-1.81-15.15.34-24.49,17.28-25.3l7.91,9.56c-32.29-.8-19.22,47.24,12.58,31.5-27.49,28.25-37.22-25.42-69.17-18.88-13.9,14.21,66.93,70.43,74.84,13.21,1.04-7.53-6.18-16.26,3.73-19.51,9.36,30.1-.24,58.06-35.69,53.9l-5.09,4.26c3.06,3.74,5.5,7.82,6.07,12.75,3.83,32.8,5.26,66.25,9.55,98.9l-9.38-3.13-.48,15.27c-7.46,3.14-16.12,6.91-21.5-1.12,12.67-10.39,3.15-24.86,2.96-37.61-.33-21.51.52-43.1.11-64.59l-19.04,5.07-2.94,95.54,15.69-1.57c-10.4,16-33.39,15.3-43.6-.66l9.21-90.7c-3.98-11.54-8.96-19.78-6.46-32.84,12.25-3.16,3.16,14.44,6.62,18.52,17.87,6.18,36.89,3.86,49.95-10.69-21.83,1.07-40.95,9.39-48.71-17.27-12.81,12.9-35.24,31.27-33.03,51.63.76,7.02,13.47,19.3.04,17.54-15.02-29.77,6.61-53.68,28.26-72.29-8.53.82-14.51,5.53-23.6,6.31-6.48.55-21.78-2.52-23.77-1.59-1.86.86-18.46,23.02-24.92,28.3-36.2,29.62-74.5,12.61-105.32,36.2-5.67,4.34-29.22,34.92-33.09,31.34,10.15-18.03,35.04-46.07,55.78-49.54,9.26-1.55,18.75.53,27.23-1.08,21.59-4.09,42.34-10.96,58.49-26.42l-34.57,7.9-.04-12.6c-34.39,22.72-68.97-1.17-62.9-40.88l-28.26,9.42,27.85-17.82c2.63-38.62-49.78-18.78-43.56,11.54,7.94-5.07,10.37-15.13,19.1-20.18,3.74-2.17,22.5-9.61,18.61,1.28-25.77-2.67-22.8,22.94-40.85,28.32-18.31-40.73,50.29-72.57,53.46-22l18.83-9.48c2.11-10.56-17.57-5.03-15.72-18.8,21.77.07,39.63-28,20-43.61-35.83-28.49-46.79,32.39-27.24,36.85,6.66,1.52,15.55-8.47,13.52,3.57-12.14,5.88-22.41-7.5-26.58-8.15-8.75-1.37-29.63-.16-39.41.37-4.16.23-10.64,5.38-9.49-3.18,14.37-6.11,32.31-7.36,47.16-1.61-2.51-28.9,7.18-45.57,37.75-37.77-2.13-5.36-7.6-4.98-12.14-11.4-14.81-20.99-16.6-65.69,12.11-75.08,16.27-5.32,32.96-3.94,48.98,1.42,8.04,2.69,12.41,8.67,20.23,9.62-.4-5.41,2.61-10.7,3.17-15.72-15.98,1.73-27.61-22.81-28-36.45-.1-3.63,5.38-38.68,12.26-29.6-5.73,19.42,18.25,24.86,21.46,40.02,1.14,5.37,1.89,15.66-5.72,16.59-.09-18.68-1.44-29.26-22.01-34.56,2.41,10.01,7.77,36.3,22.01,34.56.02,3.06.33,6.44,0,9.43ZM271.51,98.71c17.72-9.39,16.67-26.43,15.66-44.03-12.66,9.42-15.4,29.32-15.66,44.03ZM397.24,79.85c-12.4,4.63-20.53,10.35-24.26,23.63,14.79,21.62,26.23-8.92,24.26-23.63ZM359.55,161.6c25.16-3.94,4.72-48.29-13.51-43.58-22.18,14.82-27.95,40.37-6.42,58.81,84.8,8.38,20.47-125.46-25.47-59.02-3.02,4.38-9.15,14.91-8.34,19.78l15.95,8.31c2.29-12.45,9.96-29.56,23.91-31.36,34.88-4.5,42.65,61.5,7.51,52.11-31.92-8.53,6.4-59.23,6.36-5.04ZM226.42,121.18c-14.55,1.27-32.64,29.5-21.07,45.21,15.78,21.42,41.97-4.41,43.47-19.41.68-6.82-16.35-26.33-22.4-25.8ZM233.73,177.37c-24.31,9.72-42.88-6.61-37.08-32.38,2.07-9.19,13.21-12.62,10.37-21.09-42.62,21.34-10.75,85.24,26.71,53.47ZM287.2,142.77c-40.14,1.31-49.95,79.05-3.16,73.89-27.85-20.76-14.78-51.38,3.16-73.89ZM321.78,161.6c.12-10.64-13.19-14.42-21.02-18.34-23.24,8.32-37.95,51.82-16.66,67.05,28.29,20.25,60.09-14.13,40.88-40.85-14.88-4.76-38.71-1.74-37.74,17.32,9.56-4.15,19.29-10.74,26.87-.04-1.69,22.07-33.47,14.08-33.51-4.67-.05-18.55,26.53-23.02,41.19-20.46ZM105.85,217.16c18.56,18.56,55.33,13.95,67.59-10.47,19.38-38.59-18.16-62.44-54.3-57.44-30.57,4.22-30.21,50.99-13.29,67.91ZM390.98,161.58l6.23-7.83-9.37-4.7-2.87,21.54,17.03,16.16,1.57-12.58c10.96-3.77,24.8,17.44,15.75,23.67l-12.59-1.64-.06,20.39c19.67,10.05,33.15-39.54,27.8-48.19-13.82-8.29-27.89-7.24-43.49-6.83ZM249.46,205.61l-3.17-31.42c-19.17,19.6-33.83,25.71-56.54,6.29,3.25,15.19-6.23,24.36-9.45,37.72,11.86-1.45,15.23-15.44,27.38-18.19,14.72-3.33,28.69-.76,41.79,5.6ZM375.22,218.22c.47-7.43-5.84-12.93-5.85-20.44s7.92-13.93,4.32-20.42c-9.95,9.3-23.93,5.8-36.18,6.27.97,10.14-2.36,22.44-9.38,29.94-10.89,11.65-25.23,6.95-34.65,17.19,10.92.36,14.65,8.03,20.43,15.7,15.11-16.94,36.88-46.9,61.29-28.24ZM390.92,177.36c-26.09,9.7-12.46,42.82,9.45,50.29,8.43-19.46-1.56-33.37-9.45-50.29ZM406.7,224.54c-2.4,11.58,9.93,16.97,19.74,15.23,14.46-3.89,29.93-50.02,16.42-62.42-5.57,19.63-10.66,46.57-36.16,47.19ZM173.95,249.67c-22.08,11.6-17.47,35.86-3.16,51.94,23.74,26.68,80.75,14.64,89.76-20.39,8.16-31.73-16.03-87.34-55.15-67.71,24.13,4.28,43.85,7.38,49.63,35.3,4.89,23.61-2.23,42.62-23.38,53.82-40.13,21.24-70.67-13.9-57.7-52.95ZM218.01,299.95c31.6-4.82,42.17-38.89,24.69-63.96-16.09-23.08-76.91-20.24-81.26,13.68,38.86-48.08,106.51,5.39,56.58,50.29ZM287.15,227.78c-.65-.87-17.65-5.39-20.83-6.03-4.57-.92-5.25-.78-4.09,4.1,2.27,9.52,11.22,18.8,9.28,30.09l12.55-9.39c-8.44,12.85-9.74,40.01,10.91,37.74,20.33-2.23,19.77-44.77-1.45-47.19,4.31,13.42,8.98,19.7,4.68,34.73-1.6,5.58-.81,7.33-7.84,6.11,8.8-18.77-.33-26.33-4.91-40.87-1.31-4.15,1.98-8.92,1.7-9.29ZM151.94,262.25c-2.42-11.22,4.49-18.28,6.29-28.3l-28.26,3.18c-.37,4.95,6.46,3.8,9.56,7.67,4.53,5.66,5.25,14.54,12.41,17.45ZM350.08,233.96c-19.54-4.11-33.86,10.33-31.37,29.58,2.76,21.34,32.22,30.14,50.25,23.82-3.82-17.01-23.33-8.06-24.98-26.97-1.06-12.12,3.66-15.8,6.1-26.44ZM180.29,271.7c7.29-1.39,8.93,7.03,14.76,8.77,45.97,13.72,32.24-46.74-3.7-40.35-28.29,5.03-10.9,91.89,23.52,47.32-6.19,4.95-41.82-8.68-34.58-15.74ZM107.94,290.52c27.41,2.45,41.52-27.73,20.43-47.13,4.27,22.73-4.29,32.94-20.43,47.13ZM447.57,262.28c-18.69-6.3-41.17-2.38-47.12,18.83l47.12-18.83ZM192.83,322.04c-23.99-5.16-42.51-28.83-40.89-53.5l-21.98,31.41c19.3,3.12,28.85,23.35,31.48,40.9,5.62-1.61,4.55-8.32,11.29-12.23,7.44-4.32,17.06-.79,20.09-6.57ZM434.18,272.46c-12.84,2.03-37.92,14.23-41.91,27.43-10.66,35.25,67.06,68.14,78.99,22.2,8.39-32.3-1.06-55.34-37.08-49.63ZM111.4,322.32c-4.35,10.69-.23,23.18,9.22,29.6,6.7,3.8,23.58-1.7,26.7-7.87,6.45-27.37-23.05-45.25-45.53-26.63-29.2,24.18,12.11,68.06,37.59,39.2-20.69,6.2-36.85-4.05-34.85-26.79,2.04-23.26,41.78-17.11,36.67,1.67-4.89,17.97-29.73,9.38-17.54-9.47l-12.26.29ZM189.71,337.76c-18.65-2.08-31.29,14.43-34.58,31.4,15.75-3.73,29.49-16.45,34.58-31.4ZM302.92,353.48l-25.14-9.45,4.55,18.06c6.55-3.03,17.83-.42,20.58-8.61ZM457.01,388.02c6.77-6.02-40.94-36.01-50.29-31.42,5.45,23.1,29.26,30.63,50.29,31.42ZM302.92,383.32c.2,33.01-.15,66.08,0,99.06,12.11,2.03,4.33-20.86,6.34-29.31.62-2.57,7.56-1.67,6.5-6.63l-6.57-70.96c-12.41.15-6.29,5.52-6.27,7.85ZM271.47,384.9l-9.42-.02-6.61,86.56c-.49,7.27,3.47,10.39,9.7,12.66l6.33-3.27v-95.92Z"/>
  <path class="cls-1" d="M211.62,70.38c.86-.61,1.1-12.66,8.48-15.19,4.76-1.63,28.27-1.39,33.44.12,18.7,5.47,6.77,53.73-18.2,54.49-15.93.49-43.77-14.62-45.24-32.12-1.21-14.44,20.47-6.56,21.51-7.3ZM249.49,89.28c15.4-13.55,7.46-30.92-12.59-31.43,2.81,11.84,15.59,16.95,12.59,31.43ZM222.97,61.06c-14.71,4.53-8.13,48.08,15.1,43.76,16.93-9.21-1.09-48.08-15.1-43.76Z"/>
  <path class="cls-1" d="M79.6,331.42c8.96,16.97-6.89,45.86-24.21,49.67-12.04,2.65-26.1-1.56-38.63,3.79,4.33-29.54,35.83-46.86,62.84-53.46ZM76.47,337.74c-3.74-4.24-52.36,24.69-50.28,37.71,29.91,4.18,51.49-4.59,50.28-37.71Z"/>
  <path class="cls-1" d="M214.87,356.62c-24.08,32.73-2.95,77.61-62.88,75.43-5.94-5.95,21.28-57.67,37.71-48.74-14.58,11.22-28.94,22.55-31.42,42.45,10.41,1.05,25.41-5.62,31.5-14.07,11.99-16.6-1.63-48.78,25.09-55.07Z"/>
  <path class="cls-1" d="M510.11,240.61l.38,9.02c-9.21-.35-39.59,13.97-43.8,1.25-7.33-22.18,31.34-19.41,43.42-10.26Z"/>
  <path class="cls-1" d="M45.06,205.66c9.32-.24,47.98-2.89,43.64,13.63-4.6,17.54-46.97,5.21-43.64-13.63Z"/>
  <path class="cls-1" d="M523.05,365.99c-23.4,16.09-77.87-13.82-39.91-29.14,16.24-6.56,42.59,25.36,39.91,29.14ZM513.61,362.87c.03-15.27-32.95-31.04-37.36-13.75-4.06,15.94,28.49,14.71,37.36,13.75Z"/>
  <path class="cls-1" d="M397.24,366.03c-12.61-10.27-8.19-36.61-29.79-37.73-14.54,4.09,10.59,49.41,26.65,47.21-2.76,9.03-19.09-4.99-21.96-7.93-8.15-8.37-22.21-36.24-9.52-44.11,17.13-10.61,35.35,28.93,34.62,42.56Z"/>
  <path class="cls-1" d="M97.51,247c21.98-2.06,9.43,51.91-11.16,7.32.17-2.27,8.51-7.07,11.16-7.32Z"/>
  <circle class="cls-1" cx="487.03" cy="272.37" r="11.31"/>
  <path class="cls-1" d="M322.73,310.42c3.75-3.09,10.47-5.74,14.9-2.76,11.09,14.55-6.69,22.93-19.04,15.96-4.81-2.72,2.42-11.79,4.14-13.2Z"/>
  <path class="cls-1" d="M129.04,165.44c31.03-7.1,51.92,11.1,29.27,38.68-38.75,47.17-72.84-28.7-29.27-38.68ZM160.98,174.62l-15.28-3.59c.81,18.17-10.71,30.2-25.11,39.33,15.15,17.41,48.82-22.18,40.4-35.73Z"/>
  <path class="cls-1" d="M427.8,284.94c54.99-12.51,42.74,57.49,3.17,52.14-28.96-3.91-30.74-45.87-3.17-52.14ZM447.57,290.57c-23.43-3.1-41.26,6.1-31.39,31.42,7.85-2.37,5.02-12.26,9.15-17.53,6.54-8.34,23.43-2.64,22.24-13.89ZM422.45,328.25c20.81,12.32,50.6-18.13,31.46-34.55-1.37,6.64-4.82,15.59-9.41,20.5-6.7,7.17-17.2,6.94-22.06,14.05Z"/>
  <path class="cls-1" d="M214.06,274.03c-14.44,14.45-48.6-17.35-4.29-20.49,8.84,2.92,10.47,14.3,4.29,20.49Z"/>
  <path class="cls-1" d="M239.59,140.02c3.52,11.66-4.31,24.88-16.85,25.04-24.12.3-6.05-41.28,16.85-25.04Z"/>
</svg>