<?xml version="1.0" encoding="UTF-8"?>
<svg id="Layer_1" data-name="Layer 1" xmlns="http://www.w3.org/2000/svg" viewBox="0 0 540 540">
  <defs>
    <style>
      .cls-1 {
        fill: #fff;
      }
    </style>
  </defs>
  <path class="cls-1" d="M485.66,289.67c-4.46-33.74-32.66-73.71-61.95-90.63-6.62-3.83-46.28-18.56-43.64-21.99,26.06-6.41,61.21-43.9,48.64-72-9.39-20.99-46.29-16.46-48.63,8.35l29.88-6.63c16.81,30.84-19,50.46-36.26,70.15-11.03-7.06-48.29-63-25.33-67.75,4.31-.89,34.22,22.7,27.41,6.43-7.02-16.79-37.22-27.48-47.68-5.41-14.41,30.41,31.92,64.15,26.49,71.04-16.8-5-43.23,3.3-59.28,10.62-11.86,5.41-32.66,25.97-36.87,27.09-8.42,2.23-30.94-21.27-43.68-27.09-120.26-54.92-237.62,70.59-177.24,185.71,43.09,82.13,153.03,91.59,217.56,29.15,96.73,93.8,248.37,17.74,230.58-117.04ZM243.86,401.06c-95.32,79.23-236.37-5.93-200.72-126.58,26.24-88.83,146.56-116.77,205.01-45.29-32.53,44.77-37.37,90.06-17.25,141.47,3.39,8.66,17.37,22.77,12.96,30.4ZM259.28,240.65c30.73,40.83,30.73,98.87,0,139.69-32.52-35.89-32.39-104,0-139.69ZM462.43,371.68c-40.12,71.3-143.19,80.36-195.81,19.38,23.53-37.36,30.77-77.26,17.23-119.97-4.82-15.21-15.01-25.4-17.77-40.24,3.76-14.82,51.1-37.7,66.27-40.12,104.6-16.7,182.52,87.76,130.08,180.95Z"/>
  <path class="cls-1" d="M514.68,237.42c14.86,14.36-14.05,33.82-24,19.67-6.89-9.8,8.9-34.26,24-19.67Z"/>
  <path class="cls-1" d="M291.08,395.24l61.43,14.8c49.9-4.13,88.56-30.99,101.97-80.22,3.09-11.34-3.6-33.3,10.32-29.9,4.84,89.09-101.44,149.37-173.72,95.32Z"/>
  <path class="cls-1" d="M413.92,223.61c-35.66-21.98-84.66-24.86-118.7,2.18l-8.4-6.34c21.8-10.32,44.73-22.08,69.91-21.59,6.75.13,69.75,13.19,57.19,25.75Z"/>
  <path class="cls-1" d="M116.46,220.48c-48.16,23.14-73.38,68.41-56.44,121.87,3.4,10.74,16.41,22.29,12.8,33.82-49.09-53.25-21.04-153.39,52.93-165.25,2.36,12.23-3.5,6.78-9.29,9.56Z"/>
  <path class="cls-1" d="M199.36,409.5c-17.11,6.78-31.07,10.45-49.78,8.66-7.81-.75-40.13-7.18-32.24-16.54,35.56,18,68.31,7.46,101.65-8.46,2.83,9.79-13.23,13.8-19.63,16.34Z"/>
</svg>