<?xml version="1.0" encoding="UTF-8"?>
<svg id="Layer_1" data-name="Layer 1" xmlns="http://www.w3.org/2000/svg" viewBox="0 0 540 540">
  <defs>
    <style>
      .cls-1 {
        fill: #6d1221;
      }
    </style>
  </defs>
  <path class="cls-1" d="M380.38,364.26l-14.7-153.54c10.26-3.12,19.17.62,29.61-4.69,5.94-3.02,17.31-17.23,15.92-23.66-2.8-12.84-18.8,4.99-24.7,6.33-7.53,1.71-15.94.12-23.63.62,1.93,6.49,15.88,6.33,21.16,5.58,10.37-1.49,12.42-10.16,21.59-11.29-1.9,30.44-59.44,25.01-47.11-.02,7.5-15.23,28.56-1.87,35.71-11.37-24.73-8.12-53.5,2.15-37.06,31.3-15.24,3.2-11.4-5.87-16.62-16.16-2.11-4.17-8.18-10.83-9.06-13.8-.29-.98,6.86,1.04,5.67-17.02-.83-12.61-8.39-75.7-13.93-82.38l-25.94-4.66c8.46-8.48,20.48-17.03,22.64-30.05,3.27-19.65-6.05-37.34-25.5-22.64-4.17,3.14-5.38,9.19-6.01,9.65-1.29.93-21.31-8.41-30.83-.98-3.13,2.45-4.25,8.59-7.76,9.58-5.14,1.44-18.75-8.6-21.07,7.56-1.87,13.07,15.42,23.62,25.74,28.32-2.71,6.18-38,4.88-47.83,9.02-17.47,7.37-14.92,107.04-14.91,126.42-5.21.23-18.68.5-22.12,3.53-12.36,10.92-9.23,139.62-14.79,162.91-18.37,2.47-30.78,1.76-24.55,24.83l104.37,3.97c6.25,16.28,11.3,27.95,28.52,34.8-1.21,20.32,3.07,41.79-4.71,61.14-25.97,9.86-79.88-6.9-83.81,31.07h192.48c5.4,0,3.95-9.37,2.13-13.52-12.38-28.16-76.46-12.25-82.16-20.52.38-11.94-9.49-51.63-1.2-58.6,4.4-3.7,13.85-4.59,19.94-11.42,5.45-6.11,8.31-22.3,13.18-23.89l84.08-7.72,1.28-21.36-19.75-3.05-4.27-4.29ZM275.24,229.87c-9.99-6.96-22.12-16.28-17.44-30.13,1.1-3.25,27.91-18.09,32.51-18.85,38.39-6.3,43.38,49.06-1.56,42.65-.81,3.65,5.47,4.69,7.85,5.01,53.3,7.01,35.12-74.5-13.57-53.54,6.86-27.32,30.35-15.8,43.98.25,39.44,46.43-5.94,86.54-51.77,54.61ZM280.19,29.62l11.35,5.68c-.63-10.01,11.24-19.11,19.65-13.9,10.41,6.46-13.41,47.93-28.14,44.06-10.76-5.51.39-25.43-2.86-35.84ZM237.29,39.43l17.18,4.44c1.25-10.63,5.97-16.13,17.14-14.27,1.92,14.73-1.12,24.65-8.97,36.69-6.34,3.71-38.44-15.74-25.35-26.86ZM197.48,136.54c.75-9.92,3.73-26.69,6.02-36.75,1.27-5.62,4.31-10.39,5.42-15.98,4.88-.73,3.04,6.78,2.79,9.91-1.57,19.75-8.25,39.92-5.68,59.99.54,4.15,2.17,8.84,5.69,4.2-.21-24.11-.45-49.84,8.56-72.71,3.67-3.83,28.25-6.43,35.69-7.09,8.44-.74,57.91-3.64,61.38,1.08,11.19,15.2,8.49,59.84,14.13,78.74-14.53-12.17-27.57-13.77-45.64-8.52l1.69,8.67c-3.16,4.67-19.62,2.96-25.71,14.32-3.85,7.17-1.07,13.83-2.51,17.89-1.85,5.24-7.3,5.96-7.94,14.65-1.62,22.21,35.9,39.62,54.46,42.8-25.19,19.13-59.65-13.15-57.02-41.34h-51.33v-69.86ZM172.35,215.5c3.58-4.1,66.47-5.28,70.93-2.14-1.31,8.6,16.12,32.47,16.12,34.39,0,1.65-7.98,10.74-9.83,15.03-2.17,5.05-12.89,28.84-.78,26.33-1.81-16.1,11.42-24.13,17.52-36.82,2.62-1.88,25.44,12.29,39.46,3.91,4.3-2.57,4.5-7.82,7.78-10.03,5.58-3.76,17.68-4.08,23.43-10.05l11.6-21.15,7.15,82.67,1.56-52.86c-.92-9.49-4.3-18.67-3-28.43.68-5.16-.97-4.67,5.71-4.23l11.42,156.79c-6.13-.28-17.21,2.47-19.56-4.65-1.02-19.33-1.02-40.44-3.13-59.6-.47-4.26-.63-8.79-5.79-9.86l2.92,72.18c-.57,1.89-6.44,4.81-7.23,4.81h-125.46c-1.45,0-5.99,4.53-9.97,2.84,1.05-45.33-3.31-91.34,5.06-136.11,1.04-5.52-.24-3.44-5.06-3.61-7.47,46.2-5.7,93.03-5.7,139.75l-25.68-.02c-.09-17.54.12-35.17,0-52.75-.01-1.6,5.12-5.01-2.82-7.13-1.31,17.6-2.13,34.3-1.87,52.04.05,3.78,2.47,6.28-3.84,7.84-.8-53.13,2.63-106.43,9.06-159.14ZM341.17,509.01c4.47.51,15.61.98,13.13,8.19-13.04,1.42-28.95-1.79-41.52-.2-5.46.68-2.72,5.46-8.17,6.15-37.59,4.75-85.49-3.98-124.24-.26,14.04-31.98,88.4.78,88.4-38.46v-47.05h8.55v55.6c0,21.62,49.67,14.39,63.85,16.03ZM302.6,412.75c-16.1,27.01-59.97,20.22-59.49-12.44h48.47c1.07,13.37-12.68,18.23-22.8,21.37,4.76,11.71,37.93-7.26,31.37-21.39,9.83-1.87,5.41,7.49,2.45,12.46ZM402.79,380.32c-19.96,4.61-40.8.63-60.51,5.98-30.55,8.29-87.26,7.61-123.29,8.42-26.62.6-53.94-2.41-80.09,2.02l-4.16-16.39c52.72-4.23,105.5-1.89,158.39-2.74,29.89-.48,70.31-7.08,99.79-4.5,3.89.33,8.93,3.06,9.87,7.21Z"/>
  <path class="cls-1" d="M365.7,112.3c3.17,16.62,7.49,23.57,2.06,40.55-1.55,4.86-14.23,29.51-21.97,22.17-4.43-4.19,13.5-17.74,15.74-25.57,1.65-5.76,1.71-11.29,1.32-17.18-18.24,6.81-14.9,19.91-21.37,34.2-8.39-27.25,12.56-24.68,18.67-49.84,1.02-4.18-2.3-5.12,5.55-4.33Z"/>
  <circle class="cls-1" cx="381.12" cy="152.54" r="9.66"/>
  <path class="cls-1" d="M325.8,276.27v58.45c-4.28.19-4.97-10.05-5.37-13.16-1.33-10.18-6.61-69.62-3.15-72.38,1.58-.25,3.75,1.67,4.29,2.8.53,1.11,4.23,22.99,4.23,24.29Z"/>
  <path class="cls-1" d="M317.22,98.05c-10.08-15.81-20.65-9.61-35.68-11.39-4.25-.51-8.7-2.29-4.2-5.71,14.14-.09,40.32-2.95,39.88,17.1Z"/>
  <path class="cls-1" d="M305.83,207.87l-5.69,8.68-22.81-7.33c-2.25-10.7,7.37-14.21,16.31-10.45.7.3,8.29,8.6,12.19,9.1Z"/>
</svg>