<?xml version="1.0" encoding="UTF-8"?>
<svg id="Layer_1" data-name="Layer 1" xmlns="http://www.w3.org/2000/svg" viewBox="0 0 540 540">
  <defs>
    <style>
      .cls-1 {
        fill: #6d1221;
      }
    </style>
  </defs>
  <path class="cls-1" d="M110.74,371.7c-10.16-1.27-12.9,8.6-12.9,17.08-13.06-9.38-27.02,5.31-19.33,17.85,3.35,5.45,32.05,13.75,37.21,10.56,9.61-10.76,12.99-43.26-4.98-45.49ZM112.88,411.18l-28.55-7.39,1.57-10.65c5.02-3.35,15.1.25,17.51-1.85,1.8-1.56.14-13.78,9.29-11.44,3.28,10.03,4.42,21.32.18,31.33Z"/>
  <g>
    <path class="cls-1" d="M175.78,466.87c-2.25-10.09-1.08-29.85-.76-41.09.8-28.27,4.49-57.58,6.22-85.9,19.68-30.33,64.68-44.1,56.27-89.3l-23.71-195.46c-5-8.96-85.46-18.76-94.62-.19-2.81,36.84-10.76,73.19-14.98,109.83-3.09,26.82-14.17,97.64-7.02,119.19,8.09,24.4,43.51,35.76,49.85,54.16,3.91,11.33,6.04,38.87,7.28,52.16,2.56,27.5,2.34,57.8,3.05,85.54l-51.7,28.63-1.85,9.13h93.62c1.17,0,21.63-3.13,23.17-3.57,3.55-1.02,5.53-4.43,7.98-6.83-10.39-14.31-48.99-19.19-52.8-36.3ZM215.3,165.86c-5.02.58-18.57,2.98-20.84,2.98h-62.41l-4.44-7.39c3.47-5.38,7.94-4.22,13.21-4.64,26.45-2.12,52.54,4.11,78.88,3.13,4.78,3.64,0,5.4-4.4,5.92ZM127.59,52.97c20.83-4.58,43.02-4.06,63.86,0,4.34.84,9.24-.05,10.44,5.91h-69.84c-.61,0-5.39-4.99-4.46-5.91ZM124.63,61.84l83.29,1.28,11.78,93.84c-29.19-2.33-60.52-11.05-89.11-2.98l5.89-71.32c-6,1.15-4.84,6.3-5.9,10.41-2.69,10.39-4.41,58.16-6.21,60.62-.3.41-8.82,4.42-10.18.3l10.44-92.15ZM194.34,504.55c-3.62.46-7.96,3.08-8.8,3.08h-63.89c11.68-14.15,44.64-17.16,44.65-40.04.01-5.51-3.08-11.4-3.18-17.79-.46-29.96.87-90.99-10.27-117.51-8.68-20.64-36.36-25.04-46.61-48.47-11.98-27.35,5.89-84.04,6.52-114.99l9.1,4.99c-1.48,17.31-5.09,35.67-6.27,52.88-.27,3.92-2.1,12.4,4.54,10.51l7.58-65.29c31.03,5.84,62.55,1.21,93.45-3.13,2.07,18.17,5.93,36.8,7.46,55.04,2.54,30.25,8.68,48.49-13.3,72.86-8.2,9.1-32.3,23.29-36.9,31.45-5.61,9.95-8.7,56.69-9.35,70.89-.66,14.44-2.41,63.03.74,73.81,3.05,10.42,33.5,22.12,43.95,25.92,2.5,10.28-12.53,4.91-19.42,5.79Z"/>
    <path class="cls-1" d="M150.06,311.28c-19.5-3.06-47.69-36.27-31.42-53.29,6.29,61.57,79.19,57.57,94.96,1.32,2.52-8.98,2.01-15.35,3.21-23.6.76-5.19-1.52-4.99,5.86-4.45,5.27,44.96-23.76,87.69-72.61,80.02Z"/>
  </g>
  <g>
    <path class="cls-1" d="M457.48,457.12c2.08,9.21-5.97,11.57-12.9,15.32-13.87,7.5-33.73,13.08-49.51,14.36l56.51-22.26-2.06-7.47-53.76-12.54c-5.56-4.63-30.91-118.65-30.72-131.62.22-14.97,19.23-31,26.48-45.08,10.98-21.35,11.66-28.62,5.65-52.07l-72.04-183.52c-3.95-4.35-8.57-5.84-14.37-5.81-13.09.06-78.2,14.18-79.25,27.98l31.32,212.47c13.17,37.92,55.34,33,71.04,56.76,7,10.6,14.74,35.6,19.64,48.71,5.24,14.04,23.57,63.26,23.63,74.77.07,13.23-37.45,37.99-44.49,51.56,4.9,5.91,40.53-7.91,49.14-8.82,7.8-.82,2.11,3.07,1.36,5.86,16.22-1.63,77.59-17.37,80.33-34.11.94-5.74-1.4-4.89-6-4.49ZM240.51,58.89c17.18.68,36.33-3.25,52.86-8.08,3.43-1,12.56-2.46,12.52-6.76l-60.97,11.8-1.42-5.84c24.88-7.26,50.31-17.4,76.85-14.5l44.97,115.48c-37.17-6.93-75.52,1.96-112.92,3.01l-11.89-95.11ZM362.36,154.01c-1.15,5.99-6.29,4.84-10.41,5.89-29,7.42-64.07,6.95-93.58,2.96.01-5,9.87-5.65,13.33-5.94,30.07-2.51,60.47-3.44,90.66-2.91ZM350.48,489.77l33.47-36.46c2.59-6.93-17.44-66.53-21.53-77.99-5.58-15.62-16.28-48.67-25.49-60.69-12.05-15.73-37.6-16.93-52.86-30.34-23.81-20.93-21.42-87.74-28.67-118.41,37.95,7.16,78.79,5.26,115.85-5.97,7.1,34.07,34.5,64.56,18.38,100.09-5.52,12.19-28.71,37.21-30.23,47.27-2.14,14.15,14.02,81.93,18.69,99.94,3.5,13.49,8.18,26.81,11.72,40.27l52.78,14.07c-28.77,13.82-60.87,22.03-92.11,28.22Z"/>
    <path class="cls-1" d="M383.47,121.61c3.26-5.39,22.84,4.25,26.37,7.17,17.89,14.83-35.14,36.77-26.37-7.17Z"/>
    <path class="cls-1" d="M311.76,286.31c-37.58-9.86-41.35-83.29-44.46-114.49,4.2-.7,4.31,5.27,5.05,8.26,7.18,29.13,7.57,85.79,44.27,95.69,49.02,13.22,67.4-38.09,54.67-77.19,7.64-1.37,5.33,1.22,7.26,5.94,19.44,47.42-14.74,95.45-66.79,81.79Z"/>
  </g>
</svg>