<svg width="381" height="413" viewBox="0 0 381 413" fill="none" xmlns="http://www.w3.org/2000/svg">
<path d="M40.8503 107.165C40.7349 107.28 40.6195 107.338 40.5041 107.338C40.1578 107.338 39.9847 106.819 39.9847 105.78C39.9847 105.087 40.1578 104.395 40.5041 103.702C40.9658 102.895 41.7737 102.433 42.9279 102.317C46.1595 102.087 49.2181 100.99 52.1035 99.0281C54.989 97.066 57.5281 94.7576 59.7211 92.103C61.914 89.333 63.4721 86.7361 64.3955 84.3124L80.3231 44.4934C82.516 39.0688 84.9975 33.8173 87.7675 28.7389C90.6529 23.6606 94.2886 19.5055 98.6744 16.2739C103.176 13.0422 108.831 11.4263 115.641 11.4263C118.295 11.4263 120.95 11.7726 123.605 12.4651C126.375 13.0422 128.683 14.0232 130.53 15.4082C132.376 16.7932 133.3 18.7553 133.3 21.2945C133.3 21.6408 133.3 21.987 133.3 22.3333C133.3 22.6795 133.242 23.0258 133.127 23.372C132.78 25.2187 131.741 27.0654 130.01 28.912C128.394 30.7587 127.125 33.0671 126.201 35.8371C126.086 36.645 125.567 37.049 124.643 37.049C123.835 37.049 123.662 36.5296 124.124 35.4908C125.047 34.1058 125.74 32.49 126.201 30.6433C126.779 28.6812 127.067 26.7191 127.067 24.757C127.067 21.7562 126.375 19.1016 124.99 16.7932C123.605 14.4849 121.239 13.3307 117.891 13.3307C114.891 13.3307 111.832 14.1963 108.716 15.9276C105.599 17.6589 102.887 20.6597 100.579 24.9301L68.5505 83.9661C65.5497 89.5062 62.7796 93.4881 60.2405 95.9118C57.8167 98.2202 55.7969 99.6629 54.181 100.24H95.9044C101.444 100.24 106.581 100.067 111.313 99.7206C116.045 99.3743 118.93 98.5087 119.969 97.1237C121.123 95.5079 121.7 93.7766 121.7 91.9299C121.7 89.0445 120.142 86.9093 117.026 85.5243C116.68 85.2934 116.506 85.0626 116.506 84.8318C116.506 84.6009 116.622 84.3701 116.853 84.1392C117.199 83.9084 117.603 83.9084 118.065 84.1392C119.103 84.6009 120.315 85.6397 121.7 87.2555C123.201 88.7559 124.586 90.4295 125.855 92.2762C127.125 94.0074 127.933 95.3924 128.279 96.4312C128.625 97.47 128.798 98.5087 128.798 99.5475C128.798 104.28 124.701 106.646 116.506 106.646C110.043 106.646 103.118 106.415 95.7313 105.953C88.3446 105.491 81.0156 104.972 73.7443 104.395C66.5884 103.818 59.8365 103.414 53.4885 103.183C51.0648 102.952 48.641 103.299 46.2172 104.222C43.9089 105.03 42.1199 106.011 40.8503 107.165ZM149.725 106.473C148.571 106.473 147.59 106.242 146.782 105.78C145.974 105.318 145.57 104.453 145.57 103.183C145.57 101.567 145.974 99.6629 146.782 97.47C147.705 95.277 148.686 93.0841 149.725 90.8912C150.764 88.6982 151.629 86.9093 152.322 85.5243C153.707 82.8697 155.034 80.2151 156.304 77.5605C157.573 74.9059 158.67 72.6552 159.593 70.8085C160.516 69.0773 160.978 67.9231 160.978 67.346C160.978 66.4227 160.286 66.4227 158.901 67.346C157.631 68.2694 156.419 69.1927 155.265 70.116C152.726 72.5398 150.071 75.4252 147.301 78.7723C144.531 82.004 142.396 84.6009 140.896 86.563C140.549 87.0247 140.261 87.2555 140.03 87.2555C139.799 87.2555 139.684 86.967 139.684 86.3899C139.684 85.4665 139.972 84.6009 140.549 83.793C142.165 81.4846 144.07 78.9455 146.262 76.1755C148.455 73.4054 150.706 70.7508 153.014 68.2117C155.207 65.9033 157.458 63.6527 159.766 61.4597C162.075 59.2668 165.018 58.1703 168.596 58.1703C171.019 58.1703 172.231 59.0937 172.231 60.9404C172.231 62.5562 171.539 64.4029 170.154 66.4804C169.346 67.75 168.076 69.8852 166.345 72.8861C164.614 75.8869 162.825 79.1763 160.978 82.7542C159.247 86.2168 157.746 89.4484 156.477 92.4493C155.207 95.4501 154.572 97.6431 154.572 99.0281C154.572 100.644 155.38 101.452 156.996 101.452C158.266 101.452 159.824 100.817 161.671 99.5475C163.517 98.1625 165.422 96.5466 167.384 94.6999C170.962 91.2374 174.193 87.4863 177.079 83.4467C180.08 79.2917 182.619 75.3098 184.696 71.501C186.889 67.6923 188.621 64.576 189.89 62.1522C190.121 61.6906 190.352 61.1712 190.583 60.5941C190.929 59.9016 191.448 59.4976 192.141 59.3822C192.833 59.2668 194.334 59.2091 196.642 59.2091C198.95 59.2091 201.086 58.7474 203.048 57.8241H203.394C203.74 57.8241 203.913 57.9972 203.913 58.3435C203.913 59.2668 203.163 59.9593 201.663 60.421C200.278 60.8827 198.662 62.2677 196.815 64.576C195.084 66.8844 193.353 69.7121 191.621 73.0592C189.89 76.2909 188.332 79.638 186.947 83.1005C185.562 86.563 184.523 89.737 183.831 92.6224C183.138 95.5079 182.965 97.6431 183.311 99.0281C183.773 100.644 184.581 101.452 185.735 101.452C187.236 101.452 189.313 100.529 191.968 98.6818C194.738 96.8352 197.565 94.6422 200.451 92.103C203.336 89.4484 205.702 87.0247 207.549 84.8318C208.357 83.9084 209.107 82.9851 209.8 82.0617C210.492 81.1384 210.954 80.5613 211.185 80.3305C211.3 80.4459 211.416 80.6767 211.531 81.023C211.646 81.2538 211.704 81.4846 211.704 81.7155C211.589 82.5234 211.3 83.3313 210.838 84.1392C210.377 84.8318 209.857 85.4665 209.28 86.0436C207.087 88.9291 204.433 91.9876 201.317 95.2193C198.316 98.3356 195.026 100.99 191.448 103.183C187.986 105.376 184.408 106.473 180.715 106.473C179.56 106.473 178.233 106.184 176.733 105.607C175.348 105.03 174.655 103.76 174.655 101.798C174.655 100.298 175.059 98.2779 175.867 95.7387C176.675 93.0841 177.541 90.4872 178.464 87.948C179.503 85.2934 180.368 83.3313 181.061 82.0617C179.56 84.2547 177.714 86.7361 175.521 89.5062C173.443 92.1608 171.308 94.5268 169.115 96.6043C166.23 99.3743 163.113 101.74 159.766 103.702C156.535 105.549 153.187 106.473 149.725 106.473ZM238.985 106.819C236.1 106.819 233.907 105.838 232.406 103.876C231.483 102.491 230.559 100.413 229.636 97.6431C228.713 94.8731 227.905 91.9876 227.212 88.9868C226.52 85.9859 225.943 83.5622 225.481 81.7155C222.249 85.8705 219.364 90.0255 216.825 94.1806C214.401 98.3356 212.785 101.567 211.977 103.876C211.746 104.568 210.939 105.145 209.554 105.607C208.284 106.069 207.014 106.299 205.745 106.299C203.898 106.299 203.206 105.722 203.667 104.568C207.245 96.6043 210.65 88.9291 213.882 81.5424C217.113 74.1556 220.518 66.7112 224.096 59.2091C227.789 51.707 231.944 43.9163 236.561 35.8371C239.793 29.9508 243.659 24.2954 248.161 18.8707C252.777 13.3307 257.683 8.82943 262.876 5.36691C268.07 1.78897 273.322 3.29148e-07 278.631 3.29148e-07C280.362 3.29148e-07 281.978 0.461671 283.478 1.38501C284.979 2.30835 285.729 3.75107 285.729 5.71316V10.7338C285.729 11.1955 285.383 11.4263 284.69 11.4263C284.344 11.4263 284.171 11.3109 284.171 11.0801C284.171 9.23339 283.363 8.02151 281.747 7.44443C280.131 6.75192 278.573 6.40566 277.073 6.40566C273.033 6.40566 268.936 7.21358 264.781 8.82943C260.164 10.6761 256.298 13.4461 253.181 17.1395C250.065 20.8328 247.18 24.757 244.525 28.912C241.062 34.2212 237.658 40.4538 234.311 47.6097C230.963 54.6501 227.847 61.7483 224.962 68.9042C222.192 76.06 219.71 82.5234 217.517 88.2943C218.787 86.6784 220.056 85.0626 221.326 83.4467C222.596 81.8309 223.808 80.3305 224.962 78.9455C224.962 78.7146 224.904 78.4838 224.789 78.253C224.789 78.0221 224.789 77.7913 224.789 77.5605C224.789 76.7525 224.962 76.06 225.308 75.4829C225.654 74.9059 226.116 74.2134 226.693 73.4054C227.501 72.2513 228.251 71.3856 228.944 70.8085C229.636 70.116 230.386 69.2504 231.194 68.2117L231.714 71.1548C236.792 65.961 241.236 62.21 245.044 59.9016C247.699 58.2858 250.296 57.4778 252.835 57.4778C255.374 57.4778 256.644 58.4589 256.644 60.421C256.644 62.0368 255.836 64.0566 254.22 66.4804C253.643 67.2883 253.297 67.8654 253.181 68.2117C253.066 68.5579 252.835 68.9042 252.489 69.2504C252.373 69.3658 252.143 69.3658 251.796 69.2504C251.45 69.135 251.277 68.9619 251.277 68.731C251.277 67.346 250.815 66.4804 249.892 66.1341C248.969 65.6725 247.93 65.4416 246.776 65.4416C244.583 65.4416 242.217 66.2496 239.677 67.8654C237.254 69.3658 234.772 71.4433 232.233 74.0979C232.81 76.9834 233.445 80.1573 234.137 83.6199C234.945 86.967 235.811 90.0832 236.734 92.9687C237.658 95.8541 238.523 97.9893 239.331 99.3743C239.908 100.298 240.716 100.932 241.755 101.279C242.794 101.51 243.659 101.625 244.352 101.625C245.968 101.625 247.814 100.817 249.892 99.2012C252.085 97.47 254.278 95.4501 256.471 93.1418C258.779 90.718 260.857 88.352 262.703 86.0436C264.665 83.7353 266.166 81.8886 267.204 80.5036C267.666 81.0807 267.782 81.6578 267.551 82.2349C267.435 82.9274 267.089 83.6776 266.512 84.4855C266.05 85.178 265.589 85.8128 265.127 86.3899C262.819 89.2753 260.337 92.2185 257.683 95.2193C255.028 98.1047 252.2 100.702 249.199 103.01C247.93 104.049 246.372 104.972 244.525 105.78C242.678 106.473 240.832 106.819 238.985 106.819ZM273.994 107.338C269.262 107.338 265.973 106.415 264.126 104.568C262.279 102.721 261.356 100.471 261.356 97.8162C261.356 94.4691 262.222 90.8912 263.953 87.0824C265.8 83.2736 267.531 80.0419 269.147 77.3873C270.993 74.6173 273.475 71.7319 276.591 68.731C279.707 65.7302 283.112 63.191 286.806 61.1135C290.499 59.036 294.077 57.9972 297.539 57.9972C300.54 57.9972 302.618 58.7474 303.772 60.2479C304.926 61.6329 305.503 63.3064 305.503 65.2685C305.503 68.8464 304.407 71.7896 302.214 74.0979C300.136 76.4063 297.539 78.3107 294.423 79.8111C291.307 81.1961 288.306 82.3503 285.421 83.2736C283.689 83.7353 281.67 84.197 279.361 84.6586C277.053 85.1203 274.86 85.3511 272.782 85.3511C271.974 87.4286 271.34 89.4484 270.878 91.4105C270.416 93.3726 270.186 95.1616 270.186 96.7774C270.186 98.7395 270.647 100.355 271.571 101.625C272.609 102.895 274.283 103.529 276.591 103.529C277.515 103.529 278.611 103.414 279.881 103.183C281.15 102.952 282.535 102.606 284.036 102.144C287.498 100.99 290.903 99.1435 294.25 96.6043C297.597 94.0651 300.656 91.3528 303.426 88.4674C306.311 85.4665 308.504 82.9851 310.004 81.023C310.351 81.3692 310.524 81.7732 310.524 82.2349C310.524 82.8119 310.12 83.7353 309.312 85.0049C307.004 88.2366 304.003 91.5837 300.309 95.0462C296.616 98.5087 292.519 101.452 288.017 103.876C283.516 106.184 278.842 107.338 273.994 107.338ZM274.167 81.8886C275.668 82.004 277.341 82.004 279.188 81.8886C281.15 81.6578 283.055 81.2538 284.901 80.6767C289.633 79.2917 293.038 77.0988 295.116 74.0979C297.309 70.9817 298.405 68.2117 298.405 65.7879C298.405 64.4029 298.116 63.2487 297.539 62.3254C296.962 61.402 296.039 60.9404 294.769 60.9404C291.422 60.9404 288.421 62.21 285.767 64.7491C283.112 67.1729 280.804 70.0006 278.842 73.2323C276.88 76.464 275.322 79.3494 274.167 81.8886ZM215.998 277.17C212.651 277.17 209.188 275.958 205.61 273.534C202.148 271.226 198.512 267.417 194.703 262.108C193.203 259.915 191.587 257.434 189.856 254.664C188.24 251.894 186.624 249.066 185.008 246.181C183.162 248.027 181.257 249.816 179.295 251.547C177.333 253.163 174.967 254.837 172.197 256.568C167.465 259.569 162.906 261.704 158.52 262.974C154.134 264.359 149.979 265.051 146.055 265.051C142.015 265.051 138.322 264.359 134.975 262.974C131.743 261.589 129.088 259.742 127.011 257.434C123.895 253.971 122.337 249.932 122.337 245.315C122.337 241.044 123.433 237.12 125.626 233.542C127.934 229.964 130.589 226.848 133.59 224.194C138.322 220.039 143.516 216.518 149.171 213.633C154.827 210.632 160.309 207.573 165.618 204.457L165.791 204.284C164.522 200.244 163.887 196.378 163.887 192.685C163.887 191.646 163.945 190.607 164.06 189.568C164.291 188.414 164.464 187.318 164.579 186.279C165.503 182.124 167.292 179.123 169.946 177.276C172.716 175.314 175.486 174.333 178.256 174.333C180.911 174.333 183.162 175.083 185.008 176.584C186.97 178.084 187.951 180.162 187.951 182.816C187.951 185.24 187.028 187.722 185.181 190.261C183.335 192.8 181.142 195.166 178.603 197.359C176.179 199.552 173.87 201.399 171.677 202.899C172.601 205.092 173.87 207.977 175.486 211.555C177.218 215.018 179.006 218.596 180.853 222.289H204.052C205.668 222.289 207.284 222.289 208.9 222.289C210.631 222.174 211.9 221.77 212.708 221.077C212.939 220.846 213.17 220.789 213.401 220.904C213.632 221.02 213.632 221.308 213.401 221.77L210.285 226.444C209.938 227.252 209.246 227.656 208.207 227.656C207.861 227.656 207.457 227.656 206.995 227.656C206.534 227.656 205.956 227.598 205.264 227.483C203.879 227.252 202.378 227.079 200.763 226.964C199.262 226.733 197.704 226.56 196.088 226.444C195.627 228.522 194.876 230.772 193.838 233.196C192.799 235.62 191.645 237.813 190.375 239.775C192.453 243.353 194.53 246.815 196.608 250.162C198.685 253.394 200.59 256.164 202.321 258.473C205.783 262.858 209.015 265.975 212.016 267.821C215.017 269.668 217.787 270.591 220.326 270.591C224.25 270.591 227.77 269.091 230.887 266.09C234.118 263.205 237.004 260.088 239.543 256.741C239.889 256.28 240.235 256.049 240.582 256.049C241.159 256.049 241.447 256.395 241.447 257.087C241.447 257.78 241.216 258.357 240.755 258.819C236.715 264.474 232.676 268.918 228.636 272.149C224.596 275.497 220.384 277.17 215.998 277.17ZM170.985 200.995C174.332 198.686 177.333 196.089 179.988 193.204C182.758 190.203 184.547 187.202 185.354 184.201C185.47 183.855 185.528 183.509 185.528 183.163C185.528 182.816 185.528 182.528 185.528 182.297C185.528 180.335 184.893 178.892 183.623 177.969C182.354 176.93 180.911 176.411 179.295 176.411C177.448 176.411 175.544 177.161 173.582 178.661C171.735 180.046 170.408 182.412 169.6 185.76C169.485 186.452 169.369 187.145 169.254 187.837C169.254 188.53 169.254 189.222 169.254 189.915C169.254 192.108 169.427 194.243 169.773 196.32C170.235 198.282 170.639 199.84 170.985 200.995ZM152.807 256.568C159.155 256.568 164.983 255.529 170.292 253.452C172.716 252.529 175.025 251.144 177.218 249.297C179.526 247.45 181.603 245.43 183.45 243.237C182.411 241.275 181.084 238.736 179.468 235.62C177.852 232.504 176.121 229.041 174.274 225.232C171.966 225.348 169.311 225.752 166.311 226.444C163.31 227.137 160.713 228.291 158.52 229.907C156.442 231.523 155.519 233.831 155.75 236.832C155.75 237.64 155.923 238.678 156.269 239.948C156.731 241.102 157.019 241.852 157.135 242.199L155.75 243.237C154.942 241.737 153.846 239.89 152.46 237.697C151.191 235.504 150.498 233.889 150.383 232.85C150.268 231.811 150.268 230.542 150.383 229.041C150.614 227.541 151.422 226.213 152.807 225.059C154.307 223.79 156.385 222.982 159.039 222.635C161.694 222.174 164.464 221.943 167.349 221.943C168.273 221.943 169.196 222.001 170.119 222.116C171.043 222.116 171.908 222.116 172.716 222.116C171.677 219.577 170.581 216.98 169.427 214.325C168.388 211.671 167.349 209.016 166.311 206.362L164.752 207.4C160.251 210.17 155.519 213.229 150.556 216.576C145.709 219.923 141.611 223.674 138.264 227.829C136.764 229.676 135.436 231.927 134.282 234.581C133.244 237.236 132.724 239.89 132.724 242.545C132.724 244.045 132.955 245.603 133.417 247.219C133.994 248.72 134.859 250.105 136.014 251.374C137.976 253.221 140.399 254.548 143.285 255.356C146.286 256.164 149.46 256.568 152.807 256.568ZM188.471 236.485C189.509 234.87 190.491 233.138 191.414 231.292C192.337 229.33 193.087 227.598 193.664 226.098C191.818 225.867 189.971 225.694 188.124 225.579C186.278 225.463 184.373 225.348 182.411 225.232C183.681 227.425 184.777 229.503 185.701 231.465C186.739 233.427 187.663 235.1 188.471 236.485ZM0.865675 411.165C0.750258 411.28 0.634841 411.338 0.519423 411.338C0.173171 411.338 4.514e-05 410.819 4.514e-05 409.78C4.514e-05 409.087 0.173171 408.395 0.519423 407.702C0.981093 406.895 1.78901 406.433 2.94319 406.317C6.17487 406.087 9.23343 404.99 12.1189 403.028C15.0043 401.066 17.5435 398.758 19.7364 396.103C21.9293 393.333 23.4875 390.736 24.4108 388.312L40.3384 348.493C42.5313 343.069 45.0128 337.817 47.7828 332.739C50.6683 327.661 54.3039 323.506 58.6898 320.274C63.191 317.042 68.8465 315.426 75.6561 315.426C78.3107 315.426 80.9653 315.773 83.6199 316.465C86.3899 317.042 88.6983 318.023 90.545 319.408C92.3916 320.793 93.315 322.755 93.315 325.295C93.315 325.641 93.315 325.987 93.315 326.333C93.315 326.68 93.2573 327.026 93.1418 327.372C92.7956 329.219 91.7568 331.065 90.0256 332.912C88.4097 334.759 87.1401 337.067 86.2168 339.837C86.1014 340.645 85.582 341.049 84.6587 341.049C83.8507 341.049 83.6776 340.53 84.1393 339.491C85.0626 338.106 85.7551 336.49 86.2168 334.643C86.7939 332.681 87.0824 330.719 87.0824 328.757C87.0824 325.756 86.3899 323.102 85.0049 320.793C83.6199 318.485 81.2539 317.331 77.9067 317.331C74.9059 317.331 71.8473 318.196 68.7311 319.928C65.6148 321.659 62.9025 324.66 60.5942 328.93L28.5658 387.966C25.565 393.506 22.795 397.488 20.2558 399.912C17.832 402.22 15.8122 403.663 14.1964 404.24H55.9197C61.4598 404.24 66.5959 404.067 71.328 403.721C76.0601 403.374 78.9455 402.509 79.9843 401.124C81.1384 399.508 81.7155 397.777 81.7155 395.93C81.7155 393.044 80.1574 390.909 77.0411 389.524C76.6949 389.293 76.5217 389.063 76.5217 388.832C76.5217 388.601 76.6372 388.37 76.868 388.139C77.2142 387.908 77.6182 387.908 78.0799 388.139C79.1186 388.601 80.3305 389.64 81.7155 391.256C83.216 392.756 84.601 394.429 85.8705 396.276C87.1401 398.007 87.9481 399.392 88.2943 400.431C88.6406 401.47 88.8137 402.509 88.8137 403.547C88.8137 408.28 84.7164 410.646 76.5217 410.646C70.0584 410.646 63.1333 410.415 55.7466 409.953C48.3599 409.491 41.0309 408.972 33.7596 408.395C26.6037 407.818 19.8518 407.414 13.5039 407.183C11.0801 406.952 8.65635 407.299 6.23258 408.222C3.92423 409.03 2.13527 410.011 0.865675 411.165ZM123.59 410.473C122.436 410.473 121.455 410.242 120.647 409.78C119.839 409.318 119.435 408.453 119.435 407.183C119.435 405.567 119.839 403.721 120.647 401.643C121.455 399.566 122.378 397.546 123.417 395.584C124.456 393.506 125.379 391.833 126.187 390.563C122.148 394.833 117.935 398.873 113.549 402.682C111.356 404.529 108.932 406.26 106.278 407.876C103.623 409.491 100.795 410.299 97.7946 410.299C96.6404 410.299 95.8325 409.953 95.3708 409.261C94.9092 408.453 94.6783 407.529 94.6783 406.491C94.6783 405.914 94.736 405.51 94.8515 405.279C95.4285 400.777 96.8713 396.103 99.1796 391.256C101.488 386.408 104.316 381.849 107.663 377.579C111.01 373.308 114.415 369.846 117.877 367.191C121.801 364.19 126.13 362.69 130.862 362.69H150.771C151.348 362.69 151.637 362.921 151.637 363.382C151.637 364.306 151.117 364.767 150.079 364.767C148.924 364.767 147.77 365.517 146.616 367.018C145.462 368.403 144.596 369.557 144.019 370.48C143.211 371.75 141.942 373.885 140.21 376.886C138.479 379.887 136.69 383.176 134.844 386.754C133.112 390.217 131.612 393.448 130.342 396.449C129.073 399.45 128.438 401.643 128.438 403.028C128.438 404.644 129.246 405.452 130.862 405.452C132.593 405.452 134.555 404.644 136.748 403.028C138.941 401.412 141.134 399.45 143.327 397.142C145.635 394.718 147.713 392.352 149.559 390.044C151.521 387.62 153.08 385.715 154.234 384.33C154.926 385.023 154.868 386.004 154.061 387.274C153.368 388.428 152.733 389.351 152.156 390.044C149.848 393.044 147.193 396.161 144.192 399.392C141.192 402.509 137.902 405.163 134.324 407.356C130.862 409.434 127.284 410.473 123.59 410.473ZM104.893 404.413C106.278 404.413 108.182 403.432 110.606 401.47C113.145 399.392 115.857 396.853 118.743 393.852C121.628 390.736 124.341 387.504 126.88 384.157C129.419 380.695 131.496 377.579 133.112 374.809C134.844 371.923 135.709 369.73 135.709 368.23C135.709 366.96 135.305 366.095 134.497 365.633C133.805 365.171 132.881 364.94 131.727 364.94C129.881 364.94 127.861 365.633 125.668 367.018C123.59 368.287 121.917 369.557 120.647 370.827C119.262 372.096 117.589 374.116 115.627 376.886C113.78 379.541 111.933 382.484 110.087 385.715C108.24 388.947 106.682 392.063 105.412 395.064C104.143 398.065 103.508 400.489 103.508 402.336C103.508 403.721 103.969 404.413 104.893 404.413ZM165.131 410.992C163.515 410.992 162.13 410.415 160.976 409.261C159.822 408.106 159.245 406.087 159.245 403.201C159.245 400.662 159.418 397.661 159.764 394.199C160.226 390.736 160.861 387.216 161.669 383.638C162.477 379.945 163.4 376.713 164.439 373.943C162.477 376.828 160.284 379.829 157.86 382.945C155.436 385.946 153.416 388.485 151.8 390.563C151.454 391.025 151.166 391.256 150.935 391.256C150.704 391.256 150.589 390.967 150.589 390.39C150.589 389.467 150.877 388.601 151.454 387.793C153.878 384.446 156.59 380.637 159.591 376.367C162.707 372.096 165.362 368.23 167.555 364.767C168.825 364.536 170.325 364.19 172.056 363.728C173.903 363.267 175.23 362.632 176.038 361.824C176.615 361.478 176.961 361.305 177.077 361.305C177.423 361.305 177.596 361.536 177.596 361.997C177.596 362.343 177.423 362.747 177.077 363.209C176.038 364.71 174.884 367.018 173.614 370.134C172.46 373.25 171.248 376.713 169.979 380.522C168.825 384.33 167.843 388.082 167.036 391.775C166.343 395.353 165.997 398.411 165.997 400.951C165.997 402.797 166.285 404.125 166.862 404.932C167.44 405.625 168.19 405.971 169.113 405.971C170.383 405.971 171.883 405.336 173.614 404.067C175.461 402.797 177.019 401.47 178.289 400.085C179.905 398.354 181.694 396.045 183.656 393.16C185.733 390.274 187.638 387.216 189.369 383.984C191.215 380.753 192.6 377.809 193.524 375.155C194.216 373.308 194.678 371.75 194.909 370.48C195.14 369.095 195.255 367.999 195.255 367.191C195.255 365.806 195.082 364.825 194.736 364.248C194.389 363.671 194.101 363.325 193.87 363.209C193.178 362.978 192.831 362.69 192.831 362.343C192.831 362.113 193.062 361.94 193.524 361.824C193.985 361.593 194.447 361.593 194.909 361.824C196.409 362.286 197.91 362.978 199.41 363.902C200.911 364.71 201.661 366.325 201.661 368.749C201.661 369.326 201.603 370.019 201.488 370.827C201.372 371.519 201.141 372.327 200.795 373.25C200.103 375.097 198.66 377.694 196.467 381.041C194.389 384.388 191.966 387.908 189.196 391.602C186.426 395.295 183.656 398.642 180.886 401.643C178.116 404.644 175.692 406.779 173.614 408.049C172.229 408.857 170.787 409.549 169.286 410.126C167.786 410.703 166.401 410.992 165.131 410.992ZM237.835 343.819C236.219 343.819 235.065 343.3 234.372 342.261C233.91 341.684 233.68 340.934 233.68 340.01C233.68 338.164 234.545 336.663 236.276 335.509C237.546 334.816 238.7 334.47 239.739 334.47C241.47 334.47 242.682 334.99 243.375 336.028C243.836 336.605 244.067 337.356 244.067 338.279C244.067 340.126 243.144 341.626 241.297 342.78C240.258 343.473 239.104 343.819 237.835 343.819ZM207.711 410.473C206.557 410.473 205.575 410.242 204.768 409.78C204.075 409.318 203.729 408.453 203.729 407.183C203.729 405.567 204.133 403.663 204.941 401.47C205.864 399.277 206.845 397.084 207.884 394.891C209.038 392.698 209.904 390.909 210.481 389.524C211.289 387.908 212.27 385.831 213.424 383.292C214.693 380.637 215.848 378.156 216.886 375.847C218.041 373.424 218.848 371.75 219.31 370.827C217.694 372.558 215.732 374.751 213.424 377.405C211.231 379.945 209.153 382.426 207.191 384.85C205.229 387.274 203.729 389.178 202.69 390.563C202.344 391.025 202.055 391.256 201.824 391.256C201.594 391.256 201.478 390.967 201.478 390.39C201.478 389.467 201.767 388.601 202.344 387.793C204.537 385.023 206.96 381.907 209.615 378.444C212.385 374.982 214.867 371.808 217.059 368.922C219.252 365.921 220.637 363.959 221.215 363.036C222.484 362.805 224.331 362.459 226.755 361.997C229.294 361.536 231.025 360.901 231.948 360.093C232.295 359.747 232.641 359.573 232.987 359.573C233.218 359.573 233.333 359.804 233.333 360.266C233.449 360.612 233.333 361.016 232.987 361.478C232.295 362.286 231.083 364.248 229.351 367.364C227.62 370.48 225.773 373.943 223.811 377.752C221.965 381.445 220.233 384.792 218.618 387.793C217.002 390.909 215.617 393.91 214.463 396.796C213.308 399.681 212.731 401.758 212.731 403.028C212.731 404.644 213.539 405.452 215.155 405.452C216.656 405.452 218.56 404.529 220.868 402.682C223.292 400.835 225.716 398.642 228.14 396.103C230.563 393.448 232.699 391.025 234.545 388.832C235.122 388.139 235.815 387.331 236.623 386.408C237.546 385.369 238.123 384.734 238.354 384.504C238.585 384.734 238.7 385.138 238.7 385.715C238.585 386.523 238.296 387.331 237.835 388.139C237.373 388.832 236.911 389.467 236.45 390.044C234.026 393.044 231.371 396.161 228.486 399.392C225.6 402.509 222.426 405.163 218.964 407.356C215.501 409.434 211.75 410.473 207.711 410.473ZM236.17 412.55C235.708 412.55 235.708 412.031 236.17 410.992C236.747 409.953 237.266 408.799 237.728 407.529C238.305 406.26 238.882 404.875 239.459 403.374C240.613 400.604 241.883 397.488 243.268 394.026C244.653 390.563 245.98 387.216 247.25 383.984C248.519 380.637 249.616 377.809 250.539 375.501C251.578 373.077 252.27 371.519 252.617 370.827C251.001 372.558 249.039 374.751 246.73 377.405C244.537 379.945 242.46 382.426 240.498 384.85C238.536 387.274 237.035 389.178 235.996 390.563C235.65 391.025 235.362 391.256 235.131 391.256C234.9 391.256 234.785 390.967 234.785 390.39C234.785 389.467 235.073 388.601 235.65 387.793C237.843 385.023 240.267 381.907 242.922 378.444C245.692 374.982 248.173 371.808 250.366 368.922C252.559 365.921 253.944 363.959 254.521 363.036C255.791 362.805 257.637 362.459 260.061 361.997C262.6 361.536 264.331 360.901 265.255 360.093C265.601 359.747 265.947 359.573 266.294 359.573C266.524 359.573 266.64 359.804 266.64 360.266C266.755 360.612 266.64 361.016 266.294 361.478C265.601 362.286 264.389 364.19 262.658 367.191C261.042 370.076 259.253 373.308 257.291 376.886C255.444 380.464 253.713 383.696 252.097 386.581C253.482 384.734 254.983 382.945 256.598 381.214C258.214 379.483 259.772 377.809 261.273 376.194C262.658 374.809 264.562 373.077 266.986 371C269.41 368.922 271.949 367.018 274.604 365.287C277.258 363.555 279.567 362.574 281.529 362.343C281.99 362.228 282.394 362.17 282.741 362.17C283.202 362.17 283.548 362.17 283.779 362.17C286.318 362.17 287.588 363.094 287.588 364.94C287.588 366.325 286.838 368.172 285.337 370.48C284.529 371.75 283.26 373.885 281.529 376.886C279.913 379.771 278.239 382.945 276.508 386.408C274.892 389.755 273.449 392.929 272.18 395.93C271.026 398.815 270.449 400.951 270.449 402.336C270.449 403.951 271.256 404.759 272.872 404.759C274.834 404.759 276.97 403.778 279.278 401.816C281.702 399.854 284.299 397.373 287.069 394.372C289.839 391.256 292.609 387.966 295.379 384.504C295.61 384.734 295.725 385.138 295.725 385.715C295.725 386.523 295.436 387.331 294.859 388.139C294.398 388.832 293.936 389.467 293.474 390.044C292.32 391.544 290.762 393.448 288.8 395.757C286.953 397.95 285.049 400.143 283.087 402.336C281.125 404.413 279.336 406.087 277.72 407.356C276.566 408.164 275.065 409.03 273.219 409.953C271.372 410.876 269.525 411.338 267.679 411.338C265.601 411.338 264.158 410.819 263.35 409.78C262.542 408.626 262.139 407.241 262.139 405.625C262.139 403.778 262.485 401.816 263.177 399.739C263.87 397.661 264.62 395.699 265.428 393.852C266.351 391.89 267.044 390.448 267.505 389.524C269.583 385.485 271.487 381.676 273.219 378.098C274.95 374.52 276.162 371.981 276.854 370.48C277.2 369.788 277.374 369.211 277.374 368.749C277.374 367.941 276.739 367.884 275.469 368.576C274.2 369.269 272.642 370.307 270.795 371.692C269.064 373.077 267.448 374.462 265.947 375.847C264.447 377.117 263.466 377.983 263.004 378.444C258.734 382.945 254.983 387.966 251.751 393.506C248.635 398.931 245.98 404.529 243.787 410.299C242.287 410.415 240.786 410.819 239.286 411.511C237.785 412.204 236.747 412.55 236.17 412.55ZM328.286 343.819C326.67 343.819 325.516 343.3 324.824 342.261C324.362 341.684 324.131 340.934 324.131 340.01C324.131 338.164 324.997 336.663 326.728 335.509C327.998 334.816 329.152 334.47 330.191 334.47C331.922 334.47 333.134 334.99 333.826 336.028C334.288 336.605 334.519 337.356 334.519 338.279C334.519 340.126 333.595 341.626 331.749 342.78C330.71 343.473 329.556 343.819 328.286 343.819ZM298.162 410.473C297.008 410.473 296.027 410.242 295.219 409.78C294.527 409.318 294.18 408.453 294.18 407.183C294.18 405.567 294.584 403.663 295.392 401.47C296.316 399.277 297.297 397.084 298.335 394.891C299.49 392.698 300.355 390.909 300.932 389.524C301.74 387.908 302.721 385.831 303.875 383.292C305.145 380.637 306.299 378.156 307.338 375.847C308.492 373.424 309.3 371.75 309.762 370.827C308.146 372.558 306.184 374.751 303.875 377.405C301.683 379.945 299.605 382.426 297.643 384.85C295.681 387.274 294.18 389.178 293.142 390.563C292.795 391.025 292.507 391.256 292.276 391.256C292.045 391.256 291.93 390.967 291.93 390.39C291.93 389.467 292.218 388.601 292.795 387.793C294.988 385.023 297.412 381.907 300.067 378.444C302.837 374.982 305.318 371.808 307.511 368.922C309.704 365.921 311.089 363.959 311.666 363.036C312.936 362.805 314.782 362.459 317.206 361.997C319.745 361.536 321.477 360.901 322.4 360.093C322.746 359.747 323.092 359.573 323.439 359.573C323.67 359.573 323.785 359.804 323.785 360.266C323.9 360.612 323.785 361.016 323.439 361.478C322.746 362.286 321.534 364.248 319.803 367.364C318.072 370.48 316.225 373.943 314.263 377.752C312.416 381.445 310.685 384.792 309.069 387.793C307.453 390.909 306.068 393.91 304.914 396.796C303.76 399.681 303.183 401.758 303.183 403.028C303.183 404.644 303.991 405.452 305.607 405.452C307.107 405.452 309.012 404.529 311.32 402.682C313.744 400.835 316.167 398.642 318.591 396.103C321.015 393.448 323.15 391.025 324.997 388.832C325.574 388.139 326.266 387.331 327.074 386.408C327.998 385.369 328.575 384.734 328.806 384.504C329.036 384.734 329.152 385.138 329.152 385.715C329.036 386.523 328.748 387.331 328.286 388.139C327.825 388.832 327.363 389.467 326.901 390.044C324.477 393.044 321.823 396.161 318.937 399.392C316.052 402.509 312.878 405.163 309.415 407.356C305.953 409.434 302.202 410.473 298.162 410.473ZM349.128 410.473C347.973 410.473 346.992 410.242 346.184 409.78C345.377 409.318 344.973 408.453 344.973 407.183C344.973 405.567 345.377 403.721 346.184 401.643C346.992 399.566 347.916 397.546 348.954 395.584C349.993 393.506 350.917 391.833 351.724 390.563C347.685 394.833 343.472 398.873 339.086 402.682C336.893 404.529 334.47 406.26 331.815 407.876C329.16 409.491 326.333 410.299 323.332 410.299C322.178 410.299 321.37 409.953 320.908 409.261C320.446 408.453 320.216 407.529 320.216 406.491C320.216 405.914 320.273 405.51 320.389 405.279C320.966 400.777 322.408 396.103 324.717 391.256C327.025 386.408 329.853 381.849 333.2 377.579C336.547 373.308 339.952 369.846 343.414 367.191C347.339 364.19 351.667 362.69 356.399 362.69H376.308C376.885 362.69 377.174 362.921 377.174 363.382C377.174 364.306 376.655 364.767 375.616 364.767C374.462 364.767 373.308 365.517 372.153 367.018C370.999 368.403 370.134 369.557 369.556 370.48C368.749 371.75 367.479 373.885 365.748 376.886C364.016 379.887 362.227 383.176 360.381 386.754C358.65 390.217 357.149 393.448 355.88 396.449C354.61 399.45 353.975 401.643 353.975 403.028C353.975 404.644 354.783 405.452 356.399 405.452C358.13 405.452 360.092 404.644 362.285 403.028C364.478 401.412 366.671 399.45 368.864 397.142C371.172 394.718 373.25 392.352 375.096 390.044C377.059 387.62 378.617 385.715 379.771 384.33C380.463 385.023 380.406 386.004 379.598 387.274C378.905 388.428 378.27 389.351 377.693 390.044C375.385 393.044 372.73 396.161 369.73 399.392C366.729 402.509 363.439 405.163 359.861 407.356C356.399 409.434 352.821 410.473 349.128 410.473ZM330.43 404.413C331.815 404.413 333.719 403.432 336.143 401.47C338.682 399.392 341.395 396.853 344.28 393.852C347.165 390.736 349.878 387.504 352.417 384.157C354.956 380.695 357.034 377.579 358.65 374.809C360.381 371.923 361.246 369.73 361.246 368.23C361.246 366.96 360.842 366.095 360.035 365.633C359.342 365.171 358.419 364.94 357.265 364.94C355.418 364.94 353.398 365.633 351.205 367.018C349.128 368.287 347.454 369.557 346.184 370.827C344.799 372.096 343.126 374.116 341.164 376.886C339.317 379.541 337.47 382.484 335.624 385.715C333.777 388.947 332.219 392.063 330.949 395.064C329.68 398.065 329.045 400.489 329.045 402.336C329.045 403.721 329.507 404.413 330.43 404.413Z" fill="white"/>
</svg>
