<svg width="236" height="256" viewBox="0 0 236 256" fill="none" xmlns="http://www.w3.org/2000/svg">
<path d="M25.248 66.2344C25.1767 66.3057 25.1053 66.3414 25.034 66.3414C24.82 66.3414 24.713 66.0204 24.713 65.3783C24.713 64.9503 24.82 64.5223 25.034 64.0943C25.3193 63.595 25.8187 63.3096 26.532 63.2383C28.5294 63.0956 30.4198 62.4179 32.2031 61.2053C33.9865 59.9926 35.5559 58.5659 36.9113 56.9252C38.2666 55.2131 39.2296 53.6081 39.8003 52.11L49.6446 27.4995C50.9999 24.1467 52.5336 20.901 54.2457 17.7622C56.029 14.6235 58.2761 12.0554 60.9868 10.0581C63.7689 8.06069 67.2643 7.062 71.4731 7.062C73.1138 7.062 74.7545 7.27601 76.3952 7.70401C78.1072 8.06069 79.5339 8.66704 80.6753 9.52306C81.8166 10.3791 82.3873 11.5918 82.3873 13.1611C82.3873 13.3751 82.3873 13.5892 82.3873 13.8032C82.3873 14.0172 82.3516 14.2312 82.2803 14.4452C82.0663 15.5865 81.4243 16.7279 80.3543 17.8692C79.3556 19.0106 78.5709 20.4373 78.0002 22.1493C77.9289 22.6487 77.6079 22.8984 77.0372 22.8984C76.5378 22.8984 76.4308 22.5774 76.7162 21.9353C77.2869 21.0793 77.7149 20.0806 78.0002 18.9393C78.3569 17.7266 78.5352 16.5139 78.5352 15.3012C78.5352 13.4465 78.1072 11.8058 77.2512 10.3791C76.3952 8.95238 74.9328 8.23903 72.8641 8.23903C71.0094 8.23903 69.119 8.77404 67.193 9.84406C65.2669 10.9141 63.5905 12.7688 62.1638 15.4082L42.3684 51.896C40.5137 55.3201 38.8016 57.7812 37.2323 59.2792C35.7342 60.7059 34.4859 61.5976 33.4872 61.9543H59.2748C62.6989 61.9543 65.8733 61.8473 68.798 61.6333C71.7227 61.4193 73.5061 60.8842 74.1481 60.0282C74.8615 59.0295 75.2181 57.9595 75.2181 56.8182C75.2181 55.0348 74.2551 53.7151 72.3291 52.8591C72.1151 52.7164 72.0081 52.5737 72.0081 52.431C72.0081 52.2884 72.0794 52.1457 72.2221 52.003C72.4361 51.8604 72.6858 51.8604 72.9711 52.003C73.6131 52.2884 74.3621 52.9304 75.2181 53.9291C76.1455 54.8564 77.0015 55.8908 77.7862 57.0322C78.5709 58.1022 79.0702 58.9582 79.2842 59.6002C79.4982 60.2422 79.6052 60.8842 79.6052 61.5263C79.6052 64.451 77.0729 65.9134 72.0081 65.9134C68.0133 65.9134 63.7332 65.7707 59.1678 65.4854C54.6023 65.2 50.0726 64.879 45.5785 64.5223C41.1557 64.1657 36.9826 63.916 33.0592 63.7733C31.5611 63.6306 30.0631 63.8446 28.5651 64.4153C27.1384 64.9147 26.0327 65.521 25.248 66.2344ZM92.5392 65.8064C91.8258 65.8064 91.2195 65.6637 90.7201 65.3783C90.2208 65.093 89.9711 64.558 89.9711 63.7733C89.9711 62.7746 90.2208 61.5976 90.7201 60.2422C91.2908 58.8869 91.8972 57.5315 92.5392 56.1761C93.1812 54.8208 93.7162 53.7151 94.1442 52.8591C95.0002 51.2184 95.8206 49.5777 96.6053 47.9369C97.3899 46.2962 98.0676 44.9052 98.6383 43.7638C99.209 42.6938 99.4943 41.9805 99.4943 41.6238C99.4943 41.0531 99.0663 41.0531 98.2103 41.6238C97.4256 42.1945 96.6766 42.7652 95.9632 43.3358C94.3939 44.8339 92.7532 46.6172 91.0411 48.686C89.3291 50.6833 88.0094 52.2884 87.082 53.5011C86.868 53.7864 86.6897 53.9291 86.547 53.9291C86.4044 53.9291 86.333 53.7507 86.333 53.3941C86.333 52.8234 86.5114 52.2884 86.868 51.789C87.8667 50.3623 89.0438 48.793 90.3991 47.0809C91.7545 45.3689 93.1455 43.7282 94.5722 42.1588C95.9276 40.7321 97.3186 39.3411 98.7453 37.9857C100.172 36.6304 101.991 35.9527 104.202 35.9527C105.7 35.9527 106.449 36.5233 106.449 37.6647C106.449 38.6634 106.021 39.8048 105.165 41.0888C104.666 41.8735 103.881 43.1932 102.811 45.0479C101.741 46.9026 100.636 48.9356 99.4943 51.147C98.4243 53.2871 97.4969 55.2844 96.7123 57.1392C95.9276 58.9939 95.5352 60.3492 95.5352 61.2053C95.5352 62.2039 96.0346 62.7033 97.0333 62.7033C97.818 62.7033 98.781 62.3109 99.9223 61.5263C101.064 60.6702 102.241 59.6716 103.453 58.5302C105.665 56.3901 107.662 54.0718 109.446 51.575C111.3 49.007 112.87 46.5459 114.154 44.1919C115.509 41.8378 116.579 39.9118 117.364 38.4137C117.506 38.1284 117.649 37.8074 117.792 37.4507C118.006 37.0227 118.327 36.773 118.755 36.7017C119.183 36.6304 120.11 36.5947 121.537 36.5947C122.964 36.5947 124.283 36.3093 125.496 35.7387H125.71C125.924 35.7387 126.031 35.8457 126.031 36.0597C126.031 36.6304 125.567 37.0584 124.64 37.3437C123.784 37.629 122.785 38.4851 121.644 39.9118C120.574 41.3385 119.504 43.0862 118.434 45.1549C117.364 47.1523 116.401 49.221 115.545 51.361C114.689 53.5011 114.047 55.4628 113.619 57.2462C113.191 59.0295 113.084 60.3492 113.298 61.2053C113.583 62.2039 114.082 62.7033 114.796 62.7033C115.723 62.7033 117.007 62.1326 118.648 60.9912C120.36 59.8499 122.108 58.4945 123.891 56.9252C125.674 55.2844 127.137 53.7864 128.278 52.431C128.777 51.8604 129.241 51.2897 129.669 50.719C130.097 50.1483 130.382 49.7917 130.525 49.649C130.596 49.7203 130.668 49.863 130.739 50.077C130.81 50.2197 130.846 50.3623 130.846 50.505C130.775 51.0044 130.596 51.5037 130.311 52.003C130.026 52.431 129.705 52.8234 129.348 53.1801C127.993 54.9634 126.352 56.8538 124.426 58.8512C122.571 60.7772 120.538 62.4179 118.327 63.7733C116.187 65.1287 113.975 65.8064 111.693 65.8064C110.979 65.8064 110.159 65.628 109.232 65.2713C108.376 64.9147 107.948 64.13 107.948 62.9173C107.948 61.9899 108.197 60.7416 108.697 59.1722C109.196 57.5315 109.731 55.9265 110.302 54.3571C110.944 52.7164 111.479 51.5037 111.907 50.719C110.979 52.0744 109.838 53.6081 108.483 55.3201C107.199 56.9608 105.879 58.4232 104.523 59.7072C102.74 61.4193 100.814 62.8816 98.7453 64.0943C96.7479 65.2357 94.6792 65.8064 92.5392 65.8064ZM147.707 66.0204C145.924 66.0204 144.569 65.414 143.641 64.2013C143.071 63.3453 142.5 62.0613 141.929 60.3492C141.358 58.6372 140.859 56.8538 140.431 54.9991C140.003 53.1444 139.646 51.6464 139.361 50.505C137.364 53.0731 135.58 55.6411 134.011 58.2092C132.513 60.7772 131.514 62.7746 131.015 64.2013C130.872 64.6293 130.373 64.986 129.517 65.2713C128.732 65.5567 127.948 65.6994 127.163 65.6994C126.021 65.6994 125.593 65.3427 125.879 64.6293C128.09 59.7072 130.195 54.9634 132.192 50.398C134.189 45.8326 136.294 41.2315 138.505 36.5947C140.788 31.9579 143.356 27.1428 146.209 22.1493C148.207 18.5113 150.596 15.0158 153.378 11.6631C156.232 8.23903 159.264 5.45696 162.474 3.31691C165.684 1.10553 168.929 -0.000166408 172.211 -0.000166408C173.281 -0.000166408 174.28 0.285174 175.207 0.855855C176.134 1.42654 176.598 2.31822 176.598 3.53091V6.63399C176.598 6.91933 176.384 7.062 175.956 7.062C175.742 7.062 175.635 6.99067 175.635 6.84799C175.635 5.70664 175.136 4.95762 174.137 4.60094C173.138 4.17293 172.175 3.95893 171.248 3.95893C168.751 3.95893 166.219 4.45827 163.651 5.45696C160.797 6.59832 158.408 8.31036 156.482 10.5931C154.555 12.8758 152.772 15.3012 151.131 17.8692C148.991 21.1507 146.887 25.0027 144.818 29.4255C142.75 33.777 140.823 38.1641 139.04 42.5868C137.328 47.0096 135.794 51.0043 134.439 54.5711C135.224 53.5724 136.008 52.5737 136.793 51.575C137.578 50.5763 138.327 49.649 139.04 48.793C139.04 48.6503 139.004 48.5076 138.933 48.365C138.933 48.2223 138.933 48.0796 138.933 47.9369C138.933 47.4376 139.04 47.0096 139.254 46.6529C139.468 46.2962 139.753 45.8682 140.11 45.3689C140.609 44.6555 141.073 44.1205 141.501 43.7638C141.929 43.3358 142.393 42.8008 142.892 42.1588L143.213 43.9779C146.352 40.7678 149.098 38.4494 151.452 37.0227C153.093 36.024 154.698 35.5247 156.267 35.5247C157.837 35.5247 158.622 36.131 158.622 37.3437C158.622 38.3424 158.122 39.5908 157.124 41.0888C156.767 41.5881 156.553 41.9448 156.482 42.1588C156.41 42.3728 156.267 42.5868 156.053 42.8008C155.982 42.8722 155.839 42.8722 155.625 42.8008C155.411 42.7295 155.304 42.6225 155.304 42.4798C155.304 41.6238 155.019 41.0888 154.448 40.8748C153.878 40.5894 153.236 40.4468 152.522 40.4468C151.167 40.4468 149.705 40.9461 148.135 41.9448C146.637 42.8722 145.104 44.1562 143.534 45.7969C143.891 47.5803 144.283 49.542 144.711 51.682C145.211 53.7507 145.746 55.6768 146.316 57.4602C146.887 59.2435 147.422 60.5632 147.921 61.4193C148.278 61.9899 148.777 62.3823 149.419 62.5963C150.061 62.739 150.596 62.8103 151.024 62.8103C152.023 62.8103 153.164 62.3109 154.448 61.3123C155.804 60.2422 157.159 58.9939 158.515 57.5672C159.941 56.0691 161.225 54.6068 162.367 53.1801C163.579 51.7534 164.507 50.612 165.149 49.756C165.434 50.1127 165.505 50.4693 165.363 50.826C165.291 51.254 165.077 51.7177 164.721 52.217C164.435 52.6451 164.15 53.0374 163.865 53.3941C162.438 55.1774 160.904 56.9965 159.264 58.8512C157.623 60.6346 155.875 62.2396 154.02 63.6663C153.236 64.3083 152.273 64.879 151.131 65.3783C149.99 65.8064 148.849 66.0204 147.707 66.0204ZM169.345 66.3414C166.42 66.3414 164.387 65.7707 163.246 64.6293C162.105 63.488 161.534 62.0969 161.534 60.4562C161.534 58.3875 162.069 56.1761 163.139 53.8221C164.28 51.468 165.35 49.4706 166.349 47.8299C167.49 46.1179 169.024 44.3345 170.95 42.4798C172.876 40.6251 174.981 39.0557 177.263 37.7717C179.546 36.4877 181.757 35.8457 183.898 35.8457C185.752 35.8457 187.036 36.3093 187.75 37.2367C188.463 38.0927 188.82 39.1271 188.82 40.3398C188.82 42.5512 188.142 44.3702 186.787 45.7969C185.503 47.2236 183.898 48.4006 181.971 49.328C180.045 50.184 178.191 50.8973 176.407 51.468C175.337 51.7534 174.089 52.0387 172.662 52.324C171.236 52.6094 169.88 52.7521 168.596 52.7521C168.097 54.0361 167.704 55.2844 167.419 56.4971C167.134 57.7098 166.991 58.8155 166.991 59.8142C166.991 61.0269 167.276 62.0256 167.847 62.8103C168.489 63.595 169.524 63.9873 170.95 63.9873C171.521 63.9873 172.199 63.916 172.983 63.7733C173.768 63.6306 174.624 63.4166 175.551 63.1313C177.691 62.4179 179.796 61.2766 181.864 59.7072C183.933 58.1378 185.824 56.4615 187.536 54.6781C189.319 52.8234 190.674 51.2897 191.602 50.077C191.816 50.291 191.923 50.5407 191.923 50.826C191.923 51.1827 191.673 51.7534 191.174 52.5381C189.747 54.5354 187.892 56.6041 185.61 58.7442C183.327 60.8842 180.794 62.7033 178.012 64.2013C175.23 65.628 172.341 66.3414 169.345 66.3414ZM169.452 50.612C170.38 50.6833 171.414 50.6833 172.555 50.612C173.768 50.4693 174.945 50.2197 176.086 49.863C179.011 49.007 181.115 47.6516 182.399 45.7969C183.755 43.8709 184.433 42.1588 184.433 40.6608C184.433 39.8048 184.254 39.0914 183.898 38.5207C183.541 37.95 182.97 37.6647 182.185 37.6647C180.117 37.6647 178.262 38.4494 176.621 40.0188C174.981 41.5168 173.554 43.2645 172.341 45.2619C171.129 47.2593 170.166 49.0426 169.452 50.612ZM133.5 171.363C131.431 171.363 129.291 170.614 127.08 169.116C124.94 167.689 122.693 165.335 120.338 162.053C119.411 160.698 118.412 159.164 117.342 157.452C116.344 155.74 115.345 153.993 114.346 152.209C113.205 153.351 112.028 154.456 110.815 155.526C109.603 156.525 108.14 157.559 106.428 158.629C103.503 160.484 100.686 161.804 97.975 162.588C95.2642 163.444 92.6962 163.872 90.2708 163.872C87.7741 163.872 85.4914 163.444 83.4226 162.588C81.4253 161.732 79.7846 160.591 78.5005 159.164C76.5745 157.024 75.6115 154.528 75.6115 151.674C75.6115 149.035 76.2891 146.609 77.6445 144.398C79.0712 142.187 80.7119 140.261 82.5666 138.62C85.4914 136.052 88.7014 133.876 92.1968 132.093C95.6923 130.238 99.0807 128.348 102.362 126.422L102.469 126.315C101.684 123.818 101.292 121.428 101.292 119.145C101.292 118.503 101.328 117.861 101.399 117.219C101.542 116.506 101.649 115.828 101.72 115.186C102.291 112.618 103.396 110.764 105.037 109.622C106.749 108.41 108.461 107.803 110.173 107.803C111.814 107.803 113.205 108.267 114.346 109.194C115.559 110.122 116.165 111.406 116.165 113.046C116.165 114.544 115.595 116.078 114.453 117.647C113.312 119.217 111.957 120.679 110.387 122.034C108.889 123.39 107.463 124.531 106.107 125.459C106.678 126.814 107.463 128.597 108.461 130.809C109.531 132.949 110.637 135.16 111.778 137.443H126.117C127.115 137.443 128.114 137.443 129.113 137.443C130.183 137.372 130.967 137.122 131.467 136.694C131.609 136.551 131.752 136.515 131.895 136.587C132.037 136.658 132.037 136.836 131.895 137.122L129.969 140.011C129.755 140.51 129.327 140.76 128.685 140.76C128.471 140.76 128.221 140.76 127.936 140.76C127.65 140.76 127.294 140.724 126.866 140.653C126.01 140.51 125.082 140.403 124.084 140.332C123.156 140.189 122.193 140.082 121.195 140.011C120.909 141.295 120.445 142.686 119.803 144.184C119.161 145.682 118.448 147.037 117.663 148.25C118.947 150.461 120.231 152.602 121.516 154.67C122.8 156.668 123.977 158.38 125.047 159.806C127.187 162.517 129.184 164.443 131.039 165.584C132.893 166.726 134.605 167.297 136.175 167.297C138.6 167.297 140.776 166.369 142.702 164.514C144.699 162.731 146.483 160.805 148.052 158.736C148.266 158.451 148.48 158.308 148.694 158.308C149.051 158.308 149.229 158.522 149.229 158.95C149.229 159.378 149.086 159.735 148.801 160.02C146.304 163.516 143.808 166.262 141.311 168.26C138.814 170.328 136.211 171.363 133.5 171.363ZM105.679 124.282C107.748 122.855 109.603 121.25 111.243 119.466C112.955 117.612 114.061 115.757 114.56 113.902C114.632 113.688 114.667 113.474 114.667 113.26C114.667 113.046 114.667 112.868 114.667 112.725C114.667 111.513 114.275 110.621 113.49 110.05C112.706 109.408 111.814 109.087 110.815 109.087C109.674 109.087 108.497 109.551 107.284 110.478C106.143 111.334 105.322 112.797 104.823 114.865C104.752 115.293 104.68 115.721 104.609 116.149C104.609 116.577 104.609 117.005 104.609 117.433C104.609 118.789 104.716 120.108 104.93 121.392C105.215 122.605 105.465 123.568 105.679 124.282ZM94.4439 158.629C98.3673 158.629 101.97 157.987 105.251 156.703C106.749 156.133 108.176 155.277 109.531 154.135C110.958 152.994 112.242 151.746 113.383 150.39C112.741 149.177 111.921 147.608 110.922 145.682C109.924 143.756 108.854 141.616 107.712 139.262C106.286 139.333 104.645 139.583 102.79 140.011C100.935 140.439 99.3303 141.152 97.975 142.151C96.6909 143.15 96.1203 144.576 96.2629 146.431C96.2629 146.93 96.3699 147.572 96.5839 148.357C96.8693 149.07 97.0476 149.534 97.119 149.748L96.2629 150.39C95.7636 149.463 95.0859 148.321 94.2299 146.966C93.4452 145.611 93.0172 144.612 92.9459 143.97C92.8745 143.328 92.8745 142.543 92.9459 141.616C93.0885 140.689 93.5879 139.868 94.4439 139.155C95.3712 138.37 96.6553 137.871 98.296 137.657C99.9367 137.372 101.649 137.229 103.432 137.229C104.003 137.229 104.573 137.265 105.144 137.336C105.715 137.336 106.25 137.336 106.749 137.336C106.107 135.766 105.429 134.161 104.716 132.521C104.074 130.88 103.432 129.239 102.79 127.599L101.827 128.241C99.045 129.953 96.1203 131.843 93.0529 133.912C90.0568 135.98 87.5244 138.299 85.4557 140.867C84.5283 142.008 83.708 143.399 82.9946 145.04C82.3526 146.681 82.0316 148.321 82.0316 149.962C82.0316 150.889 82.1743 151.853 82.4596 152.851C82.8163 153.779 83.3513 154.635 84.0647 155.419C85.2774 156.561 86.7754 157.381 88.5588 157.88C90.4135 158.38 92.3752 158.629 94.4439 158.629ZM116.486 146.217C117.128 145.218 117.735 144.148 118.305 143.007C118.876 141.794 119.34 140.724 119.696 139.797C118.555 139.654 117.414 139.547 116.272 139.476C115.131 139.405 113.954 139.333 112.741 139.262C113.526 140.617 114.204 141.901 114.774 143.114C115.416 144.327 115.987 145.361 116.486 146.217ZM0.535013 254.234C0.463678 254.306 0.392343 254.341 0.321008 254.341C0.107003 254.341 6.43659e-07 254.02 6.43659e-07 253.378C6.43659e-07 252.95 0.107003 252.522 0.321008 252.094C0.606348 251.595 1.10569 251.31 1.81904 251.238C3.81642 251.096 5.7068 250.418 7.49017 249.205C9.27355 247.993 10.8429 246.566 12.1983 244.925C13.5536 243.213 14.5167 241.608 15.0874 240.11L24.9316 215.499C26.2869 212.147 27.8206 208.901 29.5327 205.762C31.3161 202.624 33.5631 200.055 36.2738 198.058C39.0559 196.061 42.5513 195.062 46.7601 195.062C48.4008 195.062 50.0415 195.276 51.6822 195.704C53.3942 196.061 54.8209 196.667 55.9623 197.523C57.1037 198.379 57.6743 199.592 57.6743 201.161C57.6743 201.375 57.6743 201.589 57.6743 201.803C57.6743 202.017 57.6387 202.231 57.5673 202.445C57.3533 203.587 56.7113 204.728 55.6413 205.869C54.6426 207.011 53.8579 208.437 53.2872 210.149C53.2159 210.649 52.8949 210.898 52.3242 210.898C51.8249 210.898 51.7179 210.577 52.0032 209.935C52.5739 209.079 53.0019 208.081 53.2872 206.939C53.6439 205.727 53.8222 204.514 53.8222 203.301C53.8222 201.446 53.3942 199.806 52.5382 198.379C51.6822 196.952 50.2198 196.239 48.1511 196.239C46.2964 196.239 44.406 196.774 42.48 197.844C40.5539 198.914 38.8776 200.769 37.4509 203.408L17.6554 239.896C15.8007 243.32 14.0887 245.781 12.5193 247.279C11.0213 248.706 9.77289 249.598 8.7742 249.954H34.5618C37.9859 249.954 41.1603 249.847 44.085 249.633C47.0098 249.419 48.7931 248.884 49.4351 248.028C50.1485 247.03 50.5052 245.96 50.5052 244.818C50.5052 243.035 49.5421 241.715 47.6161 240.859C47.4021 240.716 47.2951 240.574 47.2951 240.431C47.2951 240.288 47.3664 240.146 47.5091 240.003C47.7231 239.86 47.9728 239.86 48.2581 240.003C48.9001 240.288 49.6492 240.93 50.5052 241.929C51.4325 242.856 52.2885 243.891 53.0732 245.032C53.8579 246.102 54.3573 246.958 54.5713 247.6C54.7853 248.242 54.8923 248.884 54.8923 249.526C54.8923 252.451 52.3599 253.913 47.2951 253.913C43.3003 253.913 39.0202 253.771 34.4548 253.485C29.8894 253.2 25.3596 252.879 20.8655 252.522C16.4427 252.166 12.2696 251.916 8.34619 251.773C6.84816 251.631 5.35012 251.845 3.85209 252.415C2.42539 252.915 1.3197 253.521 0.535013 254.234ZM76.3864 253.806C75.673 253.806 75.0667 253.664 74.5673 253.378C74.068 253.093 73.8183 252.558 73.8183 251.773C73.8183 250.775 74.068 249.633 74.5673 248.349C75.0667 247.065 75.6374 245.817 76.2794 244.604C76.9214 243.32 77.4921 242.286 77.9914 241.501C75.4947 244.14 72.891 246.637 70.1802 248.991C68.8249 250.133 67.3268 251.203 65.6861 252.201C64.0454 253.2 62.2977 253.699 60.443 253.699C59.7297 253.699 59.2303 253.485 58.945 253.057C58.6596 252.558 58.517 251.987 58.517 251.345C58.517 250.989 58.5526 250.739 58.624 250.596C58.9807 247.814 59.8723 244.925 61.299 241.929C62.7257 238.933 64.4734 236.115 66.5422 233.476C68.6109 230.836 70.7153 228.696 72.8553 227.056C75.2807 225.201 77.9558 224.274 80.8805 224.274H93.1858C93.5425 224.274 93.7208 224.416 93.7208 224.702C93.7208 225.272 93.3998 225.558 92.7578 225.558C92.0444 225.558 91.3311 226.021 90.6177 226.949C89.9044 227.805 89.3694 228.518 89.0127 229.089C88.5133 229.873 87.7287 231.193 86.6586 233.048C85.5886 234.903 84.4829 236.936 83.3416 239.147C82.2715 241.287 81.3442 243.284 80.5595 245.139C79.7748 246.994 79.3825 248.349 79.3825 249.205C79.3825 250.204 79.8818 250.703 80.8805 250.703C81.9505 250.703 83.1632 250.204 84.5186 249.205C85.8739 248.207 87.2293 246.994 88.5847 245.567C90.0114 244.069 91.2954 242.607 92.4368 241.18C93.6495 239.682 94.6125 238.505 95.3258 237.649C95.7538 238.077 95.7182 238.683 95.2188 239.468C94.7908 240.181 94.3985 240.752 94.0418 241.18C92.6151 243.035 90.9744 244.961 89.1197 246.958C87.265 248.884 85.2319 250.525 83.0205 251.88C80.8805 253.164 78.6691 253.806 76.3864 253.806ZM64.8301 250.061C65.6861 250.061 66.8632 249.455 68.3612 248.242C69.9306 246.958 71.6069 245.389 73.3903 243.534C75.1737 241.608 76.8501 239.611 78.4194 237.542C79.9888 235.402 81.2728 233.476 82.2715 231.764C83.3416 229.98 83.8766 228.625 83.8766 227.698C83.8766 226.913 83.6269 226.378 83.1275 226.093C82.6995 225.807 82.1289 225.665 81.4155 225.665C80.2741 225.665 79.0258 226.093 77.6704 226.949C76.3864 227.733 75.352 228.518 74.5673 229.303C73.7113 230.087 72.677 231.336 71.4643 233.048C70.3229 234.689 69.1816 236.508 68.0402 238.505C66.8988 240.502 65.9358 242.428 65.1511 244.283C64.3664 246.138 63.9741 247.636 63.9741 248.777C63.9741 249.633 64.2594 250.061 64.8301 250.061ZM102.061 254.127C101.062 254.127 100.206 253.771 99.4931 253.057C98.7797 252.344 98.423 251.096 98.423 249.312C98.423 247.743 98.53 245.888 98.7441 243.748C99.0294 241.608 99.4217 239.432 99.9211 237.221C100.42 234.938 100.991 232.941 101.633 231.229C100.42 233.012 99.0651 234.867 97.567 236.793C96.069 238.648 94.8206 240.217 93.8219 241.501C93.6079 241.786 93.4296 241.929 93.2869 241.929C93.1443 241.929 93.0729 241.751 93.0729 241.394C93.0729 240.823 93.2513 240.288 93.6079 239.789C95.106 237.72 96.7823 235.366 98.6371 232.727C100.563 230.087 102.204 227.698 103.559 225.558C104.344 225.415 105.271 225.201 106.341 224.916C107.483 224.63 108.303 224.238 108.802 223.739C109.159 223.525 109.373 223.418 109.444 223.418C109.658 223.418 109.765 223.56 109.765 223.846C109.765 224.06 109.658 224.309 109.444 224.595C108.802 225.522 108.089 226.949 107.304 228.875C106.591 230.801 105.842 232.941 105.057 235.295C104.344 237.649 103.738 239.967 103.238 242.25C102.81 244.461 102.596 246.352 102.596 247.921C102.596 249.063 102.774 249.883 103.131 250.382C103.488 250.81 103.952 251.024 104.522 251.024C105.307 251.024 106.234 250.632 107.304 249.847C108.446 249.063 109.409 248.242 110.193 247.386C111.192 246.316 112.298 244.889 113.51 243.106C114.794 241.323 115.971 239.432 117.041 237.435C118.183 235.438 119.039 233.619 119.61 231.978C120.038 230.836 120.323 229.873 120.466 229.089C120.608 228.233 120.68 227.555 120.68 227.056C120.68 226.2 120.573 225.593 120.359 225.237C120.145 224.88 119.966 224.666 119.824 224.595C119.396 224.452 119.182 224.274 119.182 224.06C119.182 223.917 119.324 223.81 119.61 223.739C119.895 223.596 120.18 223.596 120.466 223.739C121.393 224.024 122.32 224.452 123.248 225.023C124.175 225.522 124.639 226.521 124.639 228.019C124.639 228.375 124.603 228.803 124.532 229.303C124.46 229.731 124.318 230.23 124.104 230.801C123.676 231.942 122.784 233.547 121.429 235.616C120.145 237.685 118.647 239.86 116.934 242.143C115.222 244.426 113.51 246.495 111.798 248.349C110.086 250.204 108.588 251.524 107.304 252.308C106.448 252.808 105.557 253.236 104.629 253.592C103.702 253.949 102.846 254.127 102.061 254.127ZM146.996 212.61C145.998 212.61 145.284 212.289 144.856 211.647C144.571 211.291 144.428 210.827 144.428 210.256C144.428 209.115 144.963 208.188 146.033 207.474C146.818 207.046 147.531 206.832 148.173 206.832C149.243 206.832 149.992 207.153 150.42 207.795C150.706 208.152 150.848 208.616 150.848 209.186C150.848 210.328 150.278 211.255 149.136 211.968C148.494 212.396 147.781 212.61 146.996 212.61ZM128.378 253.806C127.665 253.806 127.058 253.664 126.559 253.378C126.131 253.093 125.917 252.558 125.917 251.773C125.917 250.775 126.167 249.598 126.666 248.242C127.237 246.887 127.843 245.532 128.485 244.176C129.198 242.821 129.733 241.715 130.09 240.859C130.589 239.86 131.196 238.576 131.909 237.007C132.694 235.366 133.407 233.833 134.049 232.406C134.762 230.908 135.262 229.873 135.547 229.303C134.548 230.373 133.336 231.728 131.909 233.369C130.554 234.938 129.27 236.472 128.057 237.97C126.844 239.468 125.917 240.645 125.275 241.501C125.061 241.786 124.882 241.929 124.74 241.929C124.597 241.929 124.526 241.751 124.526 241.394C124.526 240.823 124.704 240.288 125.061 239.789C126.416 238.077 127.914 236.151 129.555 234.011C131.267 231.871 132.801 229.909 134.156 228.126C135.511 226.271 136.367 225.058 136.724 224.488C137.509 224.345 138.65 224.131 140.148 223.846C141.718 223.56 142.788 223.168 143.358 222.669C143.572 222.455 143.786 222.348 144 222.348C144.143 222.348 144.214 222.49 144.214 222.776C144.286 222.99 144.214 223.239 144 223.525C143.572 224.024 142.823 225.237 141.753 227.163C140.683 229.089 139.542 231.229 138.329 233.583C137.188 235.866 136.118 237.934 135.119 239.789C134.12 241.715 133.264 243.57 132.551 245.353C131.838 247.137 131.481 248.421 131.481 249.205C131.481 250.204 131.98 250.703 132.979 250.703C133.906 250.703 135.083 250.133 136.51 248.991C138.008 247.85 139.506 246.495 141.004 244.925C142.502 243.284 143.822 241.786 144.963 240.431C145.32 240.003 145.748 239.504 146.247 238.933C146.818 238.291 147.175 237.899 147.317 237.756C147.46 237.899 147.531 238.148 147.531 238.505C147.46 239.004 147.282 239.504 146.996 240.003C146.711 240.431 146.426 240.823 146.14 241.18C144.642 243.035 143.002 244.961 141.218 246.958C139.435 248.884 137.473 250.525 135.333 251.88C133.193 253.164 130.875 253.806 128.378 253.806ZM145.967 255.09C145.682 255.09 145.682 254.769 145.967 254.127C146.324 253.485 146.645 252.772 146.93 251.987C147.287 251.203 147.644 250.347 148 249.419C148.714 247.707 149.498 245.781 150.354 243.641C151.21 241.501 152.031 239.432 152.815 237.435C153.6 235.366 154.278 233.619 154.848 232.192C155.49 230.694 155.918 229.731 156.132 229.303C155.134 230.373 153.921 231.728 152.494 233.369C151.139 234.938 149.855 236.472 148.642 237.97C147.43 239.468 146.502 240.645 145.86 241.501C145.646 241.786 145.468 241.929 145.325 241.929C145.183 241.929 145.111 241.751 145.111 241.394C145.111 240.823 145.29 240.288 145.646 239.789C147.002 238.077 148.5 236.151 150.14 234.011C151.852 231.871 153.386 229.909 154.741 228.126C156.097 226.271 156.953 225.058 157.31 224.488C158.094 224.345 159.236 224.131 160.734 223.846C162.303 223.56 163.373 223.168 163.944 222.669C164.158 222.455 164.372 222.348 164.586 222.348C164.728 222.348 164.8 222.49 164.8 222.776C164.871 222.99 164.8 223.239 164.586 223.525C164.158 224.024 163.409 225.201 162.339 227.056C161.34 228.839 160.234 230.836 159.022 233.048C157.88 235.259 156.81 237.257 155.811 239.04C156.668 237.899 157.595 236.793 158.594 235.723C159.592 234.653 160.555 233.619 161.483 232.62C162.339 231.764 163.516 230.694 165.014 229.41C166.512 228.126 168.081 226.949 169.722 225.879C171.363 224.809 172.789 224.202 174.002 224.06C174.287 223.988 174.537 223.953 174.751 223.953C175.036 223.953 175.25 223.953 175.393 223.953C176.962 223.953 177.747 224.523 177.747 225.665C177.747 226.521 177.283 227.662 176.356 229.089C175.857 229.873 175.072 231.193 174.002 233.048C173.003 234.831 171.969 236.793 170.899 238.933C169.9 241.002 169.008 242.963 168.224 244.818C167.51 246.602 167.154 247.921 167.154 248.777C167.154 249.776 167.653 250.275 168.652 250.275C169.864 250.275 171.184 249.669 172.611 248.456C174.109 247.244 175.714 245.71 177.426 243.855C179.138 241.929 180.85 239.896 182.562 237.756C182.705 237.899 182.776 238.148 182.776 238.505C182.776 239.004 182.598 239.504 182.241 240.003C181.956 240.431 181.67 240.823 181.385 241.18C180.672 242.107 179.709 243.284 178.496 244.711C177.355 246.067 176.178 247.422 174.965 248.777C173.752 250.061 172.647 251.096 171.648 251.88C170.935 252.38 170.007 252.915 168.866 253.485C167.724 254.056 166.583 254.341 165.442 254.341C164.158 254.341 163.266 254.02 162.767 253.378C162.267 252.665 162.018 251.809 162.018 250.81C162.018 249.669 162.232 248.456 162.66 247.172C163.088 245.888 163.551 244.675 164.051 243.534C164.621 242.321 165.049 241.43 165.335 240.859C166.619 238.362 167.796 236.008 168.866 233.797C169.936 231.586 170.685 230.016 171.113 229.089C171.327 228.661 171.434 228.304 171.434 228.019C171.434 227.519 171.042 227.484 170.257 227.912C169.472 228.34 168.509 228.982 167.368 229.838C166.298 230.694 165.299 231.55 164.372 232.406C163.444 233.191 162.838 233.726 162.553 234.011C159.913 236.793 157.595 239.896 155.597 243.32C153.671 246.673 152.031 250.133 150.675 253.699C149.748 253.771 148.821 254.02 147.893 254.448C146.966 254.876 146.324 255.09 145.967 255.09ZM202.901 212.61C201.902 212.61 201.189 212.289 200.761 211.647C200.476 211.291 200.333 210.827 200.333 210.256C200.333 209.115 200.868 208.188 201.938 207.474C202.723 207.046 203.436 206.832 204.078 206.832C205.148 206.832 205.897 207.153 206.325 207.795C206.61 208.152 206.753 208.616 206.753 209.186C206.753 210.328 206.182 211.255 205.041 211.968C204.399 212.396 203.686 212.61 202.901 212.61ZM184.282 253.806C183.569 253.806 182.963 253.664 182.463 253.378C182.035 253.093 181.821 252.558 181.821 251.773C181.821 250.775 182.071 249.598 182.57 248.242C183.141 246.887 183.747 245.532 184.389 244.176C185.103 242.821 185.638 241.715 185.995 240.859C186.494 239.86 187.1 238.576 187.814 237.007C188.598 235.366 189.312 233.833 189.954 232.406C190.667 230.908 191.166 229.873 191.452 229.303C190.453 230.373 189.24 231.728 187.814 233.369C186.458 234.938 185.174 236.472 183.961 237.97C182.749 239.468 181.821 240.645 181.179 241.501C180.965 241.786 180.787 241.929 180.644 241.929C180.502 241.929 180.43 241.751 180.43 241.394C180.43 240.823 180.609 240.288 180.965 239.789C182.321 238.077 183.819 236.151 185.46 234.011C187.172 231.871 188.705 229.909 190.061 228.126C191.416 226.271 192.272 225.058 192.629 224.488C193.413 224.345 194.555 224.131 196.053 223.846C197.622 223.56 198.692 223.168 199.263 222.669C199.477 222.455 199.691 222.348 199.905 222.348C200.048 222.348 200.119 222.49 200.119 222.776C200.19 222.99 200.119 223.239 199.905 223.525C199.477 224.024 198.728 225.237 197.658 227.163C196.588 229.089 195.446 231.229 194.234 233.583C193.092 235.866 192.022 237.934 191.024 239.789C190.025 241.715 189.169 243.57 188.456 245.353C187.742 247.137 187.386 248.421 187.386 249.205C187.386 250.204 187.885 250.703 188.884 250.703C189.811 250.703 190.988 250.133 192.415 248.991C193.913 247.85 195.411 246.495 196.909 244.925C198.407 243.284 199.727 241.786 200.868 240.431C201.225 240.003 201.653 239.504 202.152 238.933C202.723 238.291 203.079 237.899 203.222 237.756C203.365 237.899 203.436 238.148 203.436 238.505C203.365 239.004 203.186 239.504 202.901 240.003C202.616 240.431 202.33 240.823 202.045 241.18C200.547 243.035 198.906 244.961 197.123 246.958C195.339 248.884 193.378 250.525 191.238 251.88C189.098 253.164 186.779 253.806 184.282 253.806ZM215.782 253.806C215.069 253.806 214.462 253.664 213.963 253.378C213.464 253.093 213.214 252.558 213.214 251.773C213.214 250.775 213.464 249.633 213.963 248.349C214.462 247.065 215.033 245.817 215.675 244.604C216.317 243.32 216.888 242.286 217.387 241.501C214.89 244.14 212.287 246.637 209.576 248.991C208.221 250.133 206.723 251.203 205.082 252.201C203.441 253.2 201.694 253.699 199.839 253.699C199.125 253.699 198.626 253.485 198.341 253.057C198.055 252.558 197.913 251.987 197.913 251.345C197.913 250.989 197.948 250.739 198.02 250.596C198.376 247.814 199.268 244.925 200.695 241.929C202.122 238.933 203.869 236.115 205.938 233.476C208.007 230.836 210.111 228.696 212.251 227.056C214.676 225.201 217.352 224.274 220.276 224.274H232.582C232.938 224.274 233.117 224.416 233.117 224.702C233.117 225.272 232.796 225.558 232.154 225.558C231.44 225.558 230.727 226.021 230.014 226.949C229.3 227.805 228.765 228.518 228.408 229.089C227.909 229.873 227.124 231.193 226.054 233.048C224.984 234.903 223.879 236.936 222.737 239.147C221.667 241.287 220.74 243.284 219.955 245.139C219.171 246.994 218.778 248.349 218.778 249.205C218.778 250.204 219.278 250.703 220.276 250.703C221.346 250.703 222.559 250.204 223.914 249.205C225.27 248.207 226.625 246.994 227.98 245.567C229.407 244.069 230.691 242.607 231.833 241.18C233.045 239.682 234.008 238.505 234.722 237.649C235.15 238.077 235.114 238.683 234.615 239.468C234.187 240.181 233.794 240.752 233.438 241.18C232.011 243.035 230.37 244.961 228.515 246.958C226.661 248.884 224.628 250.525 222.416 251.88C220.276 253.164 218.065 253.806 215.782 253.806ZM204.226 250.061C205.082 250.061 206.259 249.455 207.757 248.242C209.326 246.958 211.003 245.389 212.786 243.534C214.569 241.608 216.246 239.611 217.815 237.542C219.385 235.402 220.669 233.476 221.667 231.764C222.737 229.98 223.272 228.625 223.272 227.698C223.272 226.913 223.023 226.378 222.523 226.093C222.095 225.807 221.525 225.665 220.811 225.665C219.67 225.665 218.422 226.093 217.066 226.949C215.782 227.733 214.748 228.518 213.963 229.303C213.107 230.087 212.073 231.336 210.86 233.048C209.719 234.689 208.577 236.508 207.436 238.505C206.295 240.502 205.332 242.428 204.547 244.283C203.762 246.138 203.37 247.636 203.37 248.777C203.37 249.633 203.655 250.061 204.226 250.061Z" fill="#6A1324"/>
</svg>
