<svg width="836" height="126" viewBox="0 0 836 126" fill="none" xmlns="http://www.w3.org/2000/svg">
<path d="M0.86566 107.165C0.750243 107.28 0.634825 107.338 0.519408 107.338C0.173156 107.338 2.98812e-05 106.819 2.98812e-05 105.78C2.98812e-05 105.087 0.173156 104.395 0.519408 103.702C0.981077 102.895 1.789 102.433 2.94317 102.317C6.17486 102.087 9.23342 100.99 12.1189 99.0281C15.0043 97.066 17.5435 94.7576 19.7364 92.103C21.9293 89.333 23.4875 86.7361 24.4108 84.3124L40.3384 44.4934C42.5313 39.0688 45.0128 33.8173 47.7828 28.7389C50.6682 23.6606 54.3039 19.5055 58.6897 16.2739C63.191 13.0422 68.8465 11.4263 75.6561 11.4263C78.3107 11.4263 80.9653 11.7726 83.6199 12.4651C86.3899 13.0422 88.6983 14.0232 90.5449 15.4082C92.3916 16.7932 93.315 18.7553 93.315 21.2945C93.315 21.6408 93.315 21.987 93.315 22.3333C93.315 22.6795 93.2572 23.0258 93.1418 23.372C92.7956 25.2187 91.7568 27.0654 90.0256 28.912C88.4097 30.7587 87.1401 33.0671 86.2168 35.8371C86.1014 36.645 85.582 37.049 84.6586 37.049C83.8507 37.049 83.6776 36.5296 84.1393 35.4908C85.0626 34.1058 85.7551 32.49 86.2168 30.6433C86.7939 28.6812 87.0824 26.7191 87.0824 24.757C87.0824 21.7562 86.3899 19.1016 85.0049 16.7932C83.6199 14.4849 81.2538 13.3307 77.9067 13.3307C74.9059 13.3307 71.8473 14.1963 68.7311 15.9276C65.6148 17.6589 62.9025 20.6597 60.5941 24.9301L28.5658 83.9661C25.565 89.5062 22.795 93.4881 20.2558 95.9118C17.832 98.2202 15.8122 99.6629 14.1964 100.24H55.9197C61.4598 100.24 66.5958 100.067 71.3279 99.7206C76.0601 99.3743 78.9455 98.5087 79.9843 97.1237C81.1384 95.5079 81.7155 93.7766 81.7155 91.9299C81.7155 89.0445 80.1574 86.9093 77.0411 85.5243C76.6949 85.2934 76.5217 85.0626 76.5217 84.8318C76.5217 84.6009 76.6371 84.3701 76.868 84.1392C77.2142 83.9084 77.6182 83.9084 78.0799 84.1392C79.1186 84.6009 80.3305 85.6397 81.7155 87.2555C83.2159 88.7559 84.6009 90.4295 85.8705 92.2762C87.1401 94.0074 87.948 95.3924 88.2943 96.4312C88.6405 97.47 88.8137 98.5087 88.8137 99.5475C88.8137 104.28 84.7164 106.646 76.5217 106.646C70.0584 106.646 63.1333 106.415 55.7466 105.953C48.3599 105.491 41.0309 104.972 33.7596 104.395C26.6037 103.818 19.8518 103.414 13.5039 103.183C11.0801 102.952 8.65633 103.299 6.23257 104.222C3.92422 105.03 2.13525 106.011 0.86566 107.165ZM109.74 106.473C108.586 106.473 107.605 106.242 106.797 105.78C105.989 105.318 105.585 104.453 105.585 103.183C105.585 101.567 105.989 99.6629 106.797 97.47C107.72 95.277 108.702 93.0841 109.74 90.8912C110.779 88.6982 111.645 86.9093 112.337 85.5243C113.722 82.8697 115.049 80.2151 116.319 77.5605C117.589 74.9059 118.685 72.6552 119.608 70.8085C120.532 69.0773 120.993 67.9231 120.993 67.346C120.993 66.4227 120.301 66.4227 118.916 67.346C117.646 68.2694 116.434 69.1927 115.28 70.116C112.741 72.5398 110.087 75.4252 107.317 78.7723C104.546 82.004 102.411 84.6009 100.911 86.563C100.565 87.0247 100.276 87.2555 100.045 87.2555C99.8144 87.2555 99.699 86.967 99.699 86.3899C99.699 85.4665 99.9875 84.6009 100.565 83.793C102.18 81.4846 104.085 78.9455 106.278 76.1755C108.471 73.4054 110.721 70.7508 113.03 68.2117C115.223 65.9033 117.473 63.6527 119.782 61.4597C122.09 59.2668 125.033 58.1703 128.611 58.1703C131.035 58.1703 132.247 59.0937 132.247 60.9404C132.247 62.5562 131.554 64.4029 130.169 66.4804C129.361 67.75 128.092 69.8852 126.36 72.8861C124.629 75.8869 122.84 79.1763 120.993 82.7542C119.262 86.2168 117.762 89.4484 116.492 92.4493C115.223 95.4501 114.588 97.6431 114.588 99.0281C114.588 100.644 115.396 101.452 117.012 101.452C118.281 101.452 119.839 100.817 121.686 99.5475C123.533 98.1625 125.437 96.5466 127.399 94.6999C130.977 91.2374 134.209 87.4863 137.094 83.4467C140.095 79.2917 142.634 75.3098 144.712 71.501C146.905 67.6923 148.636 64.576 149.906 62.1522C150.136 61.6906 150.367 61.1712 150.598 60.5941C150.944 59.9016 151.464 59.4976 152.156 59.3822C152.849 59.2668 154.349 59.2091 156.657 59.2091C158.966 59.2091 161.101 58.7474 163.063 57.8241H163.409C163.756 57.8241 163.929 57.9972 163.929 58.3435C163.929 59.2668 163.179 59.9593 161.678 60.421C160.293 60.8827 158.677 62.2677 156.831 64.576C155.099 66.8844 153.368 69.7121 151.637 73.0592C149.906 76.2909 148.347 79.638 146.962 83.1005C145.577 86.563 144.539 89.737 143.846 92.6224C143.154 95.5079 142.98 97.6431 143.327 99.0281C143.788 100.644 144.596 101.452 145.75 101.452C147.251 101.452 149.328 100.529 151.983 98.6818C154.753 96.8352 157.581 94.6422 160.466 92.103C163.352 89.4484 165.718 87.0247 167.564 84.8318C168.372 83.9084 169.122 82.9851 169.815 82.0617C170.508 81.1384 170.969 80.5613 171.2 80.3305C171.315 80.4459 171.431 80.6767 171.546 81.023C171.662 81.2538 171.719 81.4846 171.719 81.7155C171.604 82.5234 171.315 83.3313 170.854 84.1392C170.392 84.8318 169.873 85.4665 169.296 86.0436C167.103 88.9291 164.448 91.9876 161.332 95.2193C158.331 98.3356 155.042 100.99 151.464 103.183C148.001 105.376 144.423 106.473 140.73 106.473C139.576 106.473 138.248 106.184 136.748 105.607C135.363 105.03 134.67 103.76 134.67 101.798C134.67 100.298 135.074 98.2779 135.882 95.7387C136.69 93.0841 137.556 90.4872 138.479 87.948C139.518 85.2934 140.384 83.3313 141.076 82.0617C139.576 84.2547 137.729 86.7361 135.536 89.5062C133.459 92.1608 131.323 94.5268 129.13 96.6043C126.245 99.3743 123.129 101.74 119.782 103.702C116.55 105.549 113.203 106.473 109.74 106.473ZM199 106.819C196.115 106.819 193.922 105.838 192.421 103.876C191.498 102.491 190.575 100.413 189.651 97.6431C188.728 94.8731 187.92 91.9876 187.228 88.9868C186.535 85.9859 185.958 83.5622 185.496 81.7155C182.265 85.8705 179.379 90.0255 176.84 94.1806C174.416 98.3356 172.801 101.567 171.993 103.876C171.762 104.568 170.954 105.145 169.569 105.607C168.299 106.069 167.03 106.299 165.76 106.299C163.913 106.299 163.221 105.722 163.683 104.568C167.26 96.6043 170.665 88.9291 173.897 81.5424C177.129 74.1556 180.533 66.7112 184.111 59.2091C187.805 51.707 191.96 43.9163 196.576 35.8371C199.808 29.9508 203.675 24.2954 208.176 18.8707C212.793 13.3307 217.698 8.82943 222.892 5.36691C228.085 1.78897 233.337 3.29148e-07 238.646 3.29148e-07C240.377 3.29148e-07 241.993 0.461671 243.494 1.38501C244.994 2.30835 245.744 3.75107 245.744 5.71316V10.7338C245.744 11.1955 245.398 11.4263 244.706 11.4263C244.359 11.4263 244.186 11.3109 244.186 11.0801C244.186 9.23339 243.378 8.02151 241.762 7.44443C240.147 6.75192 238.588 6.40566 237.088 6.40566C233.048 6.40566 228.951 7.21358 224.796 8.82943C220.179 10.6761 216.313 13.4461 213.197 17.1395C210.08 20.8328 207.195 24.757 204.54 28.912C201.078 34.2212 197.673 40.4538 194.326 47.6097C190.979 54.6501 187.862 61.7483 184.977 68.9042C182.207 76.06 179.726 82.5234 177.533 88.2943C178.802 86.6784 180.072 85.0626 181.341 83.4467C182.611 81.8309 183.823 80.3305 184.977 78.9455C184.977 78.7146 184.919 78.4838 184.804 78.253C184.804 78.0221 184.804 77.7913 184.804 77.5605C184.804 76.7525 184.977 76.06 185.323 75.4829C185.67 74.9059 186.131 74.2134 186.708 73.4054C187.516 72.2513 188.266 71.3856 188.959 70.8085C189.651 70.116 190.402 69.2504 191.21 68.2117L191.729 71.1548C196.807 65.961 201.251 62.21 205.06 59.9016C207.714 58.2858 210.311 57.4778 212.85 57.4778C215.39 57.4778 216.659 58.4589 216.659 60.421C216.659 62.0368 215.851 64.0566 214.235 66.4804C213.658 67.2883 213.312 67.8654 213.197 68.2117C213.081 68.5579 212.85 68.9042 212.504 69.2504C212.389 69.3658 212.158 69.3658 211.812 69.2504C211.465 69.135 211.292 68.9619 211.292 68.731C211.292 67.346 210.831 66.4804 209.907 66.1341C208.984 65.6725 207.945 65.4416 206.791 65.4416C204.598 65.4416 202.232 66.2496 199.693 67.8654C197.269 69.3658 194.788 71.4433 192.248 74.0979C192.825 76.9834 193.46 80.1573 194.153 83.6199C194.961 86.967 195.826 90.0832 196.75 92.9687C197.673 95.8541 198.539 97.9893 199.347 99.3743C199.924 100.298 200.732 100.932 201.77 101.279C202.809 101.51 203.675 101.625 204.367 101.625C205.983 101.625 207.83 100.817 209.907 99.2012C212.1 97.47 214.293 95.4501 216.486 93.1418C218.794 90.718 220.872 88.352 222.719 86.0436C224.681 83.7353 226.181 81.8886 227.22 80.5036C227.681 81.0807 227.797 81.6578 227.566 82.2349C227.451 82.9274 227.104 83.6776 226.527 84.4855C226.066 85.178 225.604 85.8128 225.142 86.3899C222.834 89.2753 220.352 92.2185 217.698 95.2193C215.043 98.1047 212.216 100.702 209.215 103.01C207.945 104.049 206.387 104.972 204.54 105.78C202.694 106.473 200.847 106.819 199 106.819ZM234.01 107.338C229.277 107.338 225.988 106.415 224.141 104.568C222.295 102.721 221.371 100.471 221.371 97.8162C221.371 94.4691 222.237 90.8912 223.968 87.0824C225.815 83.2736 227.546 80.0419 229.162 77.3873C231.009 74.6173 233.49 71.7319 236.606 68.731C239.723 65.7302 243.128 63.191 246.821 61.1135C250.514 59.036 254.092 57.9972 257.555 57.9972C260.556 57.9972 262.633 58.7474 263.787 60.2479C264.941 61.6329 265.519 63.3064 265.519 65.2685C265.519 68.8464 264.422 71.7896 262.229 74.0979C260.152 76.4063 257.555 78.3107 254.438 79.8111C251.322 81.1961 248.321 82.3503 245.436 83.2736C243.705 83.7353 241.685 84.197 239.377 84.6586C237.068 85.1203 234.875 85.3511 232.798 85.3511C231.99 87.4286 231.355 89.4484 230.893 91.4105C230.432 93.3726 230.201 95.1616 230.201 96.7774C230.201 98.7395 230.662 100.355 231.586 101.625C232.625 102.895 234.298 103.529 236.606 103.529C237.53 103.529 238.626 103.414 239.896 103.183C241.165 102.952 242.55 102.606 244.051 102.144C247.513 100.99 250.918 99.1435 254.265 96.6043C257.612 94.0651 260.671 91.3528 263.441 88.4674C266.326 85.4665 268.519 82.9851 270.02 81.023C270.366 81.3692 270.539 81.7732 270.539 82.2349C270.539 82.8119 270.135 83.7353 269.327 85.0049C267.019 88.2366 264.018 91.5837 260.325 95.0462C256.631 98.5087 252.534 101.452 248.033 103.876C243.532 106.184 238.857 107.338 234.01 107.338ZM234.183 81.8886C235.683 82.004 237.357 82.004 239.203 81.8886C241.165 81.6578 243.07 81.2538 244.917 80.6767C249.649 79.2917 253.053 77.0988 255.131 74.0979C257.324 70.9817 258.42 68.2117 258.42 65.7879C258.42 64.4029 258.132 63.2487 257.555 62.3254C256.978 61.402 256.054 60.9404 254.785 60.9404C251.438 60.9404 248.437 62.21 245.782 64.7491C243.128 67.1729 240.819 70.0006 238.857 73.2323C236.895 76.464 235.337 79.3494 234.183 81.8886ZM403.495 125.17C400.147 125.17 396.685 123.958 393.107 121.534C389.644 119.226 386.009 115.417 382.2 110.108C380.7 107.915 379.084 105.434 377.353 102.664C375.737 99.8937 374.121 97.066 372.505 94.1806C370.658 96.0272 368.754 97.8162 366.792 99.5475C364.83 101.163 362.464 102.837 359.694 104.568C354.962 107.569 350.403 109.704 346.017 110.974C341.631 112.359 337.476 113.051 333.552 113.051C329.512 113.051 325.819 112.359 322.472 110.974C319.24 109.589 316.585 107.742 314.508 105.434C311.392 101.971 309.833 97.9316 309.833 93.3149C309.833 89.0445 310.93 85.1203 313.123 81.5424C315.431 77.9644 318.086 74.8482 321.087 72.1936C325.819 68.0385 331.012 64.5183 336.668 61.6329C342.323 58.632 347.806 55.5735 353.115 52.4572L353.288 52.2841C352.018 48.2445 351.384 44.378 351.384 40.6846C351.384 39.6459 351.441 38.6071 351.557 37.5684C351.788 36.4142 351.961 35.3177 352.076 34.279C352.999 30.1239 354.788 27.1231 357.443 25.2764C360.213 23.3143 362.983 22.3333 365.753 22.3333C368.408 22.3333 370.658 23.0835 372.505 24.5839C374.467 26.0843 375.448 28.1618 375.448 30.8164C375.448 33.2402 374.525 35.7217 372.678 38.2609C370.831 40.8 368.639 43.1661 366.099 45.359C363.676 47.5519 361.367 49.3986 359.174 50.8991C360.098 53.092 361.367 55.9774 362.983 59.5554C364.714 63.0179 366.503 66.5958 368.35 70.2892H391.549C393.165 70.2892 394.781 70.2892 396.396 70.2892C398.128 70.1737 399.397 69.7698 400.205 69.0773C400.436 68.8464 400.667 68.7887 400.898 68.9042C401.129 69.0196 401.129 69.3081 400.898 69.7698L397.781 74.4442C397.435 75.2521 396.743 75.6561 395.704 75.6561C395.358 75.6561 394.954 75.6561 394.492 75.6561C394.03 75.6561 393.453 75.5984 392.761 75.4829C391.376 75.2521 389.875 75.079 388.259 74.9636C386.759 74.7327 385.201 74.5596 383.585 74.4442C383.123 76.5217 382.373 78.7723 381.334 81.1961C380.296 83.6199 379.141 85.8128 377.872 87.7749C379.949 91.3528 382.027 94.8154 384.104 98.1625C386.182 101.394 388.086 104.164 389.818 106.473C393.28 110.858 396.512 113.975 399.513 115.821C402.514 117.668 405.284 118.591 407.823 118.591C411.747 118.591 415.267 117.091 418.383 114.09C421.615 111.205 424.501 108.088 427.04 104.741C427.386 104.28 427.732 104.049 428.078 104.049C428.656 104.049 428.944 104.395 428.944 105.087C428.944 105.78 428.713 106.357 428.252 106.819C424.212 112.474 420.172 116.918 416.133 120.149C412.093 123.497 407.88 125.17 403.495 125.17ZM358.482 48.9947C361.829 46.6863 364.83 44.0894 367.484 41.204C370.254 38.2031 372.043 35.2023 372.851 32.2014C372.967 31.8552 373.024 31.5089 373.024 31.1627C373.024 30.8164 373.024 30.5279 373.024 30.2971C373.024 28.335 372.39 26.8922 371.12 25.9689C369.85 24.9302 368.408 24.4108 366.792 24.4108C364.945 24.4108 363.041 25.161 361.079 26.6614C359.232 28.0464 357.905 30.4125 357.097 33.7596C356.981 34.4521 356.866 35.1446 356.751 35.8371C356.751 36.5296 356.751 37.2221 356.751 37.9146C356.751 40.1075 356.924 42.2428 357.27 44.3203C357.732 46.2824 358.136 47.8405 358.482 48.9947ZM340.304 104.568C346.652 104.568 352.48 103.529 357.789 101.452C360.213 100.529 362.521 99.1435 364.714 97.2968C367.023 95.4501 369.1 93.4303 370.947 91.2374C369.908 89.2753 368.581 86.7361 366.965 83.6199C365.349 80.5036 363.618 77.0411 361.771 73.2323C359.463 73.3477 356.808 73.7517 353.807 74.4442C350.807 75.1367 348.21 76.2909 346.017 77.9067C343.939 79.5226 343.016 81.8309 343.247 84.8318C343.247 85.6397 343.42 86.6784 343.766 87.948C344.228 89.1022 344.516 89.8524 344.632 90.1987L343.247 91.2374C342.439 89.737 341.342 87.8903 339.957 85.6974C338.688 83.5045 337.995 81.8886 337.88 80.8499C337.764 79.8111 337.764 78.5415 337.88 77.0411C338.111 75.5407 338.919 74.2134 340.304 73.0592C341.804 71.7896 343.881 70.9817 346.536 70.6354C349.191 70.1737 351.961 69.9429 354.846 69.9429C355.769 69.9429 356.693 70.0006 357.616 70.116C358.54 70.116 359.405 70.116 360.213 70.116C359.174 67.5769 358.078 64.98 356.924 62.3254C355.885 59.6708 354.846 57.0162 353.807 54.3616L352.249 55.4003C347.748 58.1703 343.016 61.2289 338.053 64.576C333.205 67.9231 329.108 71.6742 325.761 75.8292C324.261 77.6759 322.933 79.9265 321.779 82.5811C320.74 85.2357 320.221 87.8903 320.221 90.5449C320.221 92.0453 320.452 93.6035 320.913 95.2193C321.491 96.7197 322.356 98.1047 323.51 99.3743C325.472 101.221 327.896 102.548 330.782 103.356C333.782 104.164 336.956 104.568 340.304 104.568ZM375.968 84.4855C377.006 82.8697 377.987 81.1384 378.911 79.2917C379.834 77.3296 380.584 75.5984 381.161 74.0979C379.315 73.8671 377.468 73.694 375.621 73.5786C373.775 73.4631 371.87 73.3477 369.908 73.2323C371.178 75.4252 372.274 77.5028 373.198 79.4648C374.236 81.4269 375.16 83.1005 375.968 84.4855ZM455.829 107.165C455.713 107.28 455.598 107.338 455.482 107.338C455.136 107.338 454.963 106.819 454.963 105.78C454.963 105.087 455.136 104.395 455.482 103.702C455.944 102.895 456.752 102.433 457.906 102.317C461.138 102.087 464.196 100.99 467.082 99.0281C469.967 97.066 472.506 94.7576 474.699 92.103C476.892 89.333 478.45 86.7361 479.374 84.3124L495.301 44.4934C497.494 39.0688 499.976 33.8173 502.746 28.7389C505.631 23.6606 509.267 19.5055 513.653 16.2739C518.154 13.0422 523.809 11.4263 530.619 11.4263C533.274 11.4263 535.928 11.7726 538.583 12.4651C541.353 13.0422 543.661 14.0232 545.508 15.4082C547.355 16.7932 548.278 18.7553 548.278 21.2945C548.278 21.6408 548.278 21.987 548.278 22.3333C548.278 22.6795 548.22 23.0258 548.105 23.372C547.759 25.2187 546.72 27.0654 544.989 28.912C543.373 30.7587 542.103 33.0671 541.18 35.8371C541.064 36.645 540.545 37.049 539.622 37.049C538.814 37.049 538.641 36.5296 539.102 35.4908C540.026 34.1058 540.718 32.49 541.18 30.6433C541.757 28.6812 542.045 26.7191 542.045 24.757C542.045 21.7562 541.353 19.1016 539.968 16.7932C538.583 14.4849 536.217 13.3307 532.87 13.3307C529.869 13.3307 526.81 14.1963 523.694 15.9276C520.578 17.6589 517.865 20.6597 515.557 24.9301L483.529 83.9661C480.528 89.5062 477.758 93.4881 475.219 95.9118C472.795 98.2202 470.775 99.6629 469.159 100.24H510.883C516.423 100.24 521.559 100.067 526.291 99.7206C531.023 99.3743 533.908 98.5087 534.947 97.1237C536.101 95.5079 536.678 93.7766 536.678 91.9299C536.678 89.0445 535.12 86.9093 532.004 85.5243C531.658 85.2934 531.485 85.0626 531.485 84.8318C531.485 84.6009 531.6 84.3701 531.831 84.1392C532.177 83.9084 532.581 83.9084 533.043 84.1392C534.082 84.6009 535.293 85.6397 536.678 87.2555C538.179 88.7559 539.564 90.4295 540.834 92.2762C542.103 94.0074 542.911 95.3924 543.257 96.4312C543.604 97.47 543.777 98.5087 543.777 99.5475C543.777 104.28 539.679 106.646 531.485 106.646C525.021 106.646 518.096 106.415 510.71 105.953C503.323 105.491 495.994 104.972 488.723 104.395C481.567 103.818 474.815 103.414 468.467 103.183C466.043 102.952 463.619 103.299 461.196 104.222C458.887 105.03 457.098 106.011 455.829 107.165ZM578.553 106.473C577.399 106.473 576.418 106.242 575.61 105.78C574.802 105.318 574.398 104.453 574.398 103.183C574.398 101.567 574.802 99.7206 575.61 97.6431C576.418 95.5656 577.341 93.5458 578.38 91.5837C579.419 89.5062 580.342 87.8326 581.15 86.563C577.111 90.8335 572.898 94.8731 568.512 98.6818C566.319 100.529 563.895 102.26 561.241 103.876C558.586 105.491 555.758 106.299 552.758 106.299C551.603 106.299 550.795 105.953 550.334 105.261C549.872 104.453 549.641 103.529 549.641 102.491C549.641 101.914 549.699 101.51 549.814 101.279C550.391 96.7774 551.834 92.103 554.143 87.2555C556.451 82.408 559.279 77.849 562.626 73.5786C565.973 69.3081 569.378 65.8456 572.84 63.191C576.764 60.1901 581.092 58.6897 585.825 58.6897H605.734C606.311 58.6897 606.6 58.9206 606.6 59.3822C606.6 60.3056 606.08 60.7672 605.042 60.7672C603.887 60.7672 602.733 61.5174 601.579 63.0179C600.425 64.4029 599.559 65.5571 598.982 66.4804C598.174 67.75 596.905 69.8852 595.173 72.8861C593.442 75.8869 591.653 79.1763 589.807 82.7542C588.075 86.2168 586.575 89.4484 585.305 92.4493C584.036 95.4501 583.401 97.6431 583.401 99.0281C583.401 100.644 584.209 101.452 585.825 101.452C587.556 101.452 589.518 100.644 591.711 99.0281C593.904 97.4122 596.097 95.4501 598.29 93.1418C600.598 90.718 602.676 88.352 604.522 86.0436C606.484 83.6199 608.042 81.7155 609.197 80.3305C609.889 81.023 609.831 82.004 609.023 83.2736C608.331 84.4278 607.696 85.3511 607.119 86.0436C604.811 89.0445 602.156 92.1608 599.155 95.3924C596.154 98.5087 592.865 101.163 589.287 103.356C585.825 105.434 582.247 106.473 578.553 106.473ZM559.856 100.413C561.241 100.413 563.145 99.432 565.569 97.47C568.108 95.3924 570.82 92.8533 573.706 89.8524C576.591 86.7361 579.304 83.5045 581.843 80.1573C584.382 76.6948 586.459 73.5786 588.075 70.8085C589.807 67.9231 590.672 65.7302 590.672 64.2298C590.672 62.9602 590.268 62.0945 589.46 61.6329C588.768 61.1712 587.844 60.9404 586.69 60.9404C584.844 60.9404 582.824 61.6329 580.631 63.0179C578.553 64.2875 576.88 65.5571 575.61 66.8266C574.225 68.0962 572.552 70.116 570.59 72.8861C568.743 75.5407 566.896 78.4838 565.049 81.7155C563.203 84.9472 561.645 88.0634 560.375 91.0643C559.105 94.0651 558.471 96.4889 558.471 98.3356C558.471 99.7206 558.932 100.413 559.856 100.413ZM620.094 106.992C618.478 106.992 617.093 106.415 615.939 105.261C614.785 104.106 614.208 102.087 614.208 99.2012C614.208 96.662 614.381 93.6612 614.727 90.1987C615.189 86.7361 615.824 83.2159 616.632 79.638C617.439 75.9446 618.363 72.7129 619.402 69.9429C617.439 72.8283 615.247 75.8292 612.823 78.9455C610.399 81.9463 608.379 84.4855 606.763 86.563C606.417 87.0247 606.129 87.2555 605.898 87.2555C605.667 87.2555 605.552 86.967 605.552 86.3899C605.552 85.4665 605.84 84.6009 606.417 83.793C608.841 80.4459 611.553 76.6371 614.554 72.3667C617.67 68.0962 620.325 64.2298 622.518 60.7672C623.787 60.5364 625.288 60.1901 627.019 59.7285C628.866 59.2668 630.193 58.632 631.001 57.8241C631.578 57.4778 631.924 57.3047 632.04 57.3047C632.386 57.3047 632.559 57.5355 632.559 57.9972C632.559 58.3435 632.386 58.7474 632.04 59.2091C631.001 60.7095 629.847 63.0179 628.577 66.1341C627.423 69.2504 626.211 72.7129 624.942 76.5217C623.787 80.3305 622.806 84.0815 621.998 87.7749C621.306 91.3528 620.96 94.4114 620.96 96.9506C620.96 98.7972 621.248 100.125 621.825 100.932C622.402 101.625 623.153 101.971 624.076 101.971C625.346 101.971 626.846 101.336 628.577 100.067C630.424 98.7972 631.982 97.47 633.252 96.0849C634.868 94.3537 636.656 92.0453 638.619 89.1599C640.696 86.2745 642.6 83.2159 644.332 79.9842C646.178 76.7525 647.563 73.8094 648.487 71.1548C649.179 69.3081 649.641 67.75 649.872 66.4804C650.103 65.0954 650.218 63.9989 650.218 63.191C650.218 61.806 650.045 60.8249 649.699 60.2479C649.352 59.6708 649.064 59.3245 648.833 59.2091C648.141 58.9783 647.794 58.6897 647.794 58.3435C647.794 58.1126 648.025 57.9395 648.487 57.8241C648.948 57.5933 649.41 57.5933 649.872 57.8241C651.372 58.2858 652.873 58.9783 654.373 59.9016C655.873 60.7095 656.624 62.3254 656.624 64.7491C656.624 65.3262 656.566 66.0187 656.451 66.8266C656.335 67.5191 656.104 68.3271 655.758 69.2504C655.066 71.0971 653.623 73.694 651.43 77.0411C649.352 80.3882 646.929 83.9084 644.159 87.6018C641.389 91.2951 638.619 94.6422 635.849 97.6431C633.079 100.644 630.655 102.779 628.577 104.049C627.192 104.857 625.75 105.549 624.249 106.126C622.749 106.703 621.364 106.992 620.094 106.992ZM692.798 39.819C691.182 39.819 690.028 39.2996 689.335 38.2609C688.873 37.6838 688.643 36.9336 688.643 36.0102C688.643 34.1635 689.508 32.6631 691.239 31.5089C692.509 30.8164 693.663 30.4702 694.702 30.4702C696.433 30.4702 697.645 30.9896 698.338 32.0283C698.799 32.6054 699.03 33.3556 699.03 34.279C699.03 36.1256 698.107 37.6261 696.26 38.7802C695.221 39.4727 694.067 39.819 692.798 39.819ZM662.674 106.473C661.519 106.473 660.538 106.242 659.73 105.78C659.038 105.318 658.692 104.453 658.692 103.183C658.692 101.567 659.096 99.6629 659.904 97.47C660.827 95.277 661.808 93.0841 662.847 90.8912C664.001 88.6982 664.867 86.9093 665.444 85.5243C666.252 83.9084 667.233 81.8309 668.387 79.2917C669.656 76.6371 670.811 74.1556 671.849 71.8473C673.003 69.4235 673.811 67.75 674.273 66.8266C672.657 68.5579 670.695 70.7508 668.387 73.4054C666.194 75.9446 664.116 78.4261 662.154 80.8499C660.192 83.2736 658.692 85.178 657.653 86.563C657.307 87.0247 657.018 87.2555 656.787 87.2555C656.557 87.2555 656.441 86.967 656.441 86.3899C656.441 85.4665 656.73 84.6009 657.307 83.793C659.5 81.023 661.923 77.9067 664.578 74.4442C667.348 70.9817 669.83 67.8077 672.022 64.9223C674.215 61.9214 675.6 59.9593 676.177 59.036C677.447 58.8051 679.294 58.4589 681.717 57.9972C684.257 57.5355 685.988 56.9008 686.911 56.0928C687.258 55.7466 687.604 55.5735 687.95 55.5735C688.181 55.5735 688.296 55.8043 688.296 56.266C688.412 56.6122 688.296 57.0162 687.95 57.4778C687.258 58.2858 686.046 60.2479 684.314 63.3641C682.583 66.4804 680.736 69.9429 678.774 73.7517C676.928 77.445 675.196 80.7921 673.581 83.793C671.965 86.9093 670.58 89.9101 669.426 92.7955C668.271 95.681 667.694 97.7585 667.694 99.0281C667.694 100.644 668.502 101.452 670.118 101.452C671.618 101.452 673.523 100.529 675.831 98.6818C678.255 96.8352 680.679 94.6422 683.103 92.103C685.526 89.4484 687.661 87.0247 689.508 84.8318C690.085 84.1392 690.778 83.3313 691.586 82.408C692.509 81.3692 693.086 80.7344 693.317 80.5036C693.548 80.7344 693.663 81.1384 693.663 81.7155C693.548 82.5234 693.259 83.3313 692.798 84.1392C692.336 84.8318 691.874 85.4665 691.413 86.0436C688.989 89.0445 686.334 92.1608 683.449 95.3924C680.563 98.5087 677.389 101.163 673.927 103.356C670.464 105.434 666.713 106.473 662.674 106.473ZM691.133 108.55C690.671 108.55 690.671 108.031 691.133 106.992C691.71 105.953 692.229 104.799 692.691 103.529C693.268 102.26 693.845 100.875 694.422 99.3743C695.576 96.6043 696.846 93.4881 698.231 90.0255C699.616 86.563 700.943 83.2159 702.213 79.9842C703.482 76.6371 704.579 73.8094 705.502 71.501C706.541 69.0773 707.233 67.5191 707.58 66.8266C705.964 68.5579 704.002 70.7508 701.693 73.4054C699.5 75.9446 697.423 78.4261 695.461 80.8499C693.499 83.2736 691.998 85.178 690.959 86.563C690.613 87.0247 690.325 87.2555 690.094 87.2555C689.863 87.2555 689.748 86.967 689.748 86.3899C689.748 85.4665 690.036 84.6009 690.613 83.793C692.806 81.023 695.23 77.9067 697.884 74.4442C700.654 70.9817 703.136 67.8077 705.329 64.9223C707.522 61.9214 708.907 59.9593 709.484 59.036C710.754 58.8051 712.6 58.4589 715.024 57.9972C717.563 57.5355 719.294 56.9008 720.218 56.0928C720.564 55.7466 720.91 55.5735 721.256 55.5735C721.487 55.5735 721.603 55.8043 721.603 56.266C721.718 56.6122 721.603 57.0162 721.256 57.4778C720.564 58.2858 719.352 60.1901 717.621 63.191C716.005 66.0764 714.216 69.3081 712.254 72.8861C710.407 76.464 708.676 79.6957 707.06 82.5811C708.445 80.7344 709.946 78.9455 711.561 77.2142C713.177 75.4829 714.735 73.8094 716.236 72.1936C717.621 70.8085 719.525 69.0773 721.949 66.9998C724.373 64.9223 726.912 63.0179 729.567 61.2866C732.221 59.5554 734.529 58.5743 736.492 58.3435C736.953 58.2281 737.357 58.1703 737.703 58.1703C738.165 58.1703 738.511 58.1703 738.742 58.1703C741.281 58.1703 742.551 59.0937 742.551 60.9404C742.551 62.3254 741.801 64.172 740.3 66.4804C739.492 67.75 738.223 69.8852 736.492 72.8861C734.876 75.7715 733.202 78.9455 731.471 82.408C729.855 85.7551 728.412 88.9291 727.143 91.9299C725.989 94.8154 725.412 96.9506 725.412 98.3356C725.412 99.9514 726.219 100.759 727.835 100.759C729.797 100.759 731.933 99.7783 734.241 97.8162C736.665 95.8541 739.262 93.3726 742.032 90.3718C744.802 87.2555 747.572 83.9661 750.342 80.5036C750.572 80.7344 750.688 81.1384 750.688 81.7155C750.688 82.5234 750.399 83.3313 749.822 84.1392C749.361 84.8318 748.899 85.4665 748.437 86.0436C747.283 87.5441 745.725 89.4484 743.763 91.7568C741.916 93.9497 740.012 96.1427 738.05 98.3356C736.088 100.413 734.299 102.087 732.683 103.356C731.529 104.164 730.028 105.03 728.182 105.953C726.335 106.876 724.488 107.338 722.641 107.338C720.564 107.338 719.121 106.819 718.313 105.78C717.505 104.626 717.101 103.241 717.101 101.625C717.101 99.7783 717.448 97.8162 718.14 95.7387C718.833 93.6612 719.583 91.6991 720.391 89.8524C721.314 87.8903 722.007 86.4476 722.468 85.5243C724.546 81.4846 726.45 77.6759 728.182 74.0979C729.913 70.52 731.125 67.9808 731.817 66.4804C732.163 65.7879 732.337 65.2108 732.337 64.7491C732.337 63.9412 731.702 63.8835 730.432 64.576C729.163 65.2685 727.604 66.3073 725.758 67.6923C724.027 69.0773 722.411 70.4623 720.91 71.8473C719.41 73.1169 718.429 73.9825 717.967 74.4442C713.697 78.9455 709.946 83.9661 706.714 89.5062C703.598 94.9308 700.943 100.529 698.75 106.299C697.25 106.415 695.749 106.819 694.249 107.511C692.748 108.204 691.71 108.55 691.133 108.55ZM783.249 39.819C781.633 39.819 780.479 39.2996 779.787 38.2609C779.325 37.6838 779.094 36.9336 779.094 36.0102C779.094 34.1635 779.96 32.6631 781.691 31.5089C782.961 30.8164 784.115 30.4702 785.154 30.4702C786.885 30.4702 788.097 30.9896 788.789 32.0283C789.251 32.6054 789.482 33.3556 789.482 34.279C789.482 36.1256 788.558 37.6261 786.712 38.7802C785.673 39.4727 784.519 39.819 783.249 39.819ZM753.125 106.473C751.971 106.473 750.99 106.242 750.182 105.78C749.49 105.318 749.143 104.453 749.143 103.183C749.143 101.567 749.547 99.6629 750.355 97.47C751.279 95.277 752.26 93.0841 753.298 90.8912C754.453 88.6982 755.318 86.9093 755.895 85.5243C756.703 83.9084 757.684 81.8309 758.838 79.2917C760.108 76.6371 761.262 74.1556 762.301 71.8473C763.455 69.4235 764.263 67.75 764.725 66.8266C763.109 68.5579 761.147 70.7508 758.838 73.4054C756.645 75.9446 754.568 78.4261 752.606 80.8499C750.644 83.2736 749.143 85.178 748.105 86.563C747.758 87.0247 747.47 87.2555 747.239 87.2555C747.008 87.2555 746.893 86.967 746.893 86.3899C746.893 85.4665 747.181 84.6009 747.758 83.793C749.951 81.023 752.375 77.9067 755.03 74.4442C757.8 70.9817 760.281 67.8077 762.474 64.9223C764.667 61.9214 766.052 59.9593 766.629 59.036C767.899 58.8051 769.745 58.4589 772.169 57.9972C774.708 57.5355 776.44 56.9008 777.363 56.0928C777.709 55.7466 778.055 55.5735 778.402 55.5735C778.632 55.5735 778.748 55.8043 778.748 56.266C778.863 56.6122 778.748 57.0162 778.402 57.4778C777.709 58.2858 776.497 60.2479 774.766 63.3641C773.035 66.4804 771.188 69.9429 769.226 73.7517C767.379 77.445 765.648 80.7921 764.032 83.793C762.416 86.9093 761.031 89.9101 759.877 92.7955C758.723 95.681 758.146 97.7585 758.146 99.0281C758.146 100.644 758.954 101.452 760.57 101.452C762.07 101.452 763.974 100.529 766.283 98.6818C768.707 96.8352 771.13 94.6422 773.554 92.103C775.978 89.4484 778.113 87.0247 779.96 84.8318C780.537 84.1392 781.229 83.3313 782.037 82.408C782.961 81.3692 783.538 80.7344 783.769 80.5036C783.999 80.7344 784.115 81.1384 784.115 81.7155C783.999 82.5234 783.711 83.3313 783.249 84.1392C782.787 84.8318 782.326 85.4665 781.864 86.0436C779.44 89.0445 776.786 92.1608 773.9 95.3924C771.015 98.5087 767.841 101.163 764.378 103.356C760.916 105.434 757.165 106.473 753.125 106.473ZM804.091 106.473C802.936 106.473 801.955 106.242 801.147 105.78C800.339 105.318 799.936 104.453 799.936 103.183C799.936 101.567 800.339 99.7206 801.147 97.6431C801.955 95.5656 802.879 93.5458 803.917 91.5837C804.956 89.5062 805.88 87.8326 806.687 86.563C802.648 90.8335 798.435 94.8731 794.049 98.6818C791.856 100.529 789.433 102.26 786.778 103.876C784.123 105.491 781.296 106.299 778.295 106.299C777.141 106.299 776.333 105.953 775.871 105.261C775.409 104.453 775.178 103.529 775.178 102.491C775.178 101.914 775.236 101.51 775.352 101.279C775.929 96.7774 777.371 92.103 779.68 87.2555C781.988 82.408 784.816 77.849 788.163 73.5786C791.51 69.3081 794.915 65.8456 798.377 63.191C802.302 60.1901 806.63 58.6897 811.362 58.6897H831.271C831.848 58.6897 832.137 58.9206 832.137 59.3822C832.137 60.3056 831.618 60.7672 830.579 60.7672C829.425 60.7672 828.27 61.5174 827.116 63.0179C825.962 64.4029 825.096 65.5571 824.519 66.4804C823.711 67.75 822.442 69.8852 820.711 72.8861C818.979 75.8869 817.19 79.1763 815.344 82.7542C813.612 86.2168 812.112 89.4484 810.842 92.4493C809.573 95.4501 808.938 97.6431 808.938 99.0281C808.938 100.644 809.746 101.452 811.362 101.452C813.093 101.452 815.055 100.644 817.248 99.0281C819.441 97.4122 821.634 95.4501 823.827 93.1418C826.135 90.718 828.213 88.352 830.059 86.0436C832.022 83.6199 833.58 81.7155 834.734 80.3305C835.426 81.023 835.369 82.004 834.561 83.2736C833.868 84.4278 833.233 85.3511 832.656 86.0436C830.348 89.0445 827.693 92.1608 824.693 95.3924C821.692 98.5087 818.402 101.163 814.824 103.356C811.362 105.434 807.784 106.473 804.091 106.473ZM785.393 100.413C786.778 100.413 788.682 99.432 791.106 97.47C793.645 95.3924 796.358 92.8533 799.243 89.8524C802.128 86.7361 804.841 83.5045 807.38 80.1573C809.919 76.6948 811.997 73.5786 813.612 70.8085C815.344 67.9231 816.209 65.7302 816.209 64.2298C816.209 62.9602 815.805 62.0945 814.997 61.6329C814.305 61.1712 813.382 60.9404 812.227 60.9404C810.381 60.9404 808.361 61.6329 806.168 63.0179C804.091 64.2875 802.417 65.5571 801.147 66.8266C799.762 68.0962 798.089 70.116 796.127 72.8861C794.28 75.5407 792.433 78.4838 790.587 81.7155C788.74 84.9472 787.182 88.0634 785.912 91.0643C784.643 94.0651 784.008 96.4889 784.008 98.3356C784.008 99.7206 784.47 100.413 785.393 100.413Z" fill="white"/>
</svg>
