<svg width="128" height="116" viewBox="0 0 128 116" fill="none" xmlns="http://www.w3.org/2000/svg">
<path d="M37.3765 52.8286C38.3019 52.9291 37.9446 52.8286 38.0982 52.3046C38.4377 51.149 38.7021 49.7422 38.9843 48.5363C42.5179 33.4271 45.63 17.7688 47.3593 2.35449C53.0974 7.39329 60.8685 8.89703 67.7714 11.7394L68.9219 13.0889C70.7298 26.7805 74.0419 40.7879 75.4639 54.4867C76.1213 60.7995 75.4853 64.2377 74.1955 70.3065C72.4376 78.5789 69.8615 86.6969 67.7071 94.8652L62.3227 94.7181C62.3834 97.0401 62.2369 99.3872 62.3048 101.713C62.4513 106.619 64.3557 110.283 59.4357 113.481C55.5806 115.986 49.8639 116.28 45.3942 115.835C37.4873 115.049 38.0339 107.728 37.3694 101.523L36.6619 104.566C36.3332 110.251 37.1729 115.329 30.0806 115.857C25.3107 116.212 19.7084 115.939 15.7282 113.061C13.0306 111.109 12.6412 109.989 12.7662 106.698C13.3343 91.7321 14.9743 75.0007 14.2204 60.1607C14.1454 58.6893 13.9381 56.238 13.3129 54.9855L12.4196 70.9094C12.4196 73.7877 10.7189 77.6063 10.6796 80.2585C10.6618 81.3172 11.2834 82.3508 11.3513 83.4454C11.6729 88.5057 10.5796 93.9537 10.4867 99.0463C9.78282 101.598 1.62226 101.074 -0.00341797 99.1432L1.00057 56.9343C3.81961 45.1089 1.37573 31.9592 3.67669 20.2451C4.08758 18.1564 5.32381 12.8628 7.17816 11.9476C13.2914 8.92933 20.4123 7.99622 26.2933 3.93719C26.7506 3.62137 27.894 1.95254 28.2906 2.71338C29.4804 19.6816 34.4396 36.1331 37.3729 52.8322L37.3765 52.8286ZM59.1142 25.9837L53.2689 23.4428C53.0331 23.4823 51.3252 27.3475 51.6325 27.7674C53.8763 27.0245 56.263 27.0281 58.5747 26.6836C59.057 26.6118 59.6608 26.5436 59.1106 25.9837H59.1142ZM62.6764 53.8981C62.1726 53.2736 62.044 53.9591 61.9761 54.44C61.0721 60.6057 61.0936 67.037 61.6152 73.2278L64.3056 64.6576L64.8058 61.1835C63.7983 58.8579 62.855 56.4785 62.68 53.8981H62.6764Z" fill="black"/>
<path d="M105.062 39.6106L105.68 41.7496C107.327 42.1336 108.838 40.2027 110.235 40.2961C111.389 40.375 112.722 42.1515 114.48 41.7531L115.098 39.6106L121.501 38.6523C123.755 44.2008 126.517 48.4428 127.443 54.5403C130.037 71.6665 122.769 92.8158 122.176 110.258C121.122 115.404 111.486 112.278 108.117 111.902C106.334 111.701 99.4773 111.837 98.5269 111.155C98.309 110.997 98.0946 110.872 98.0231 110.588L92.2671 65.8956C92.1028 60.2144 92.2671 54.5009 94.0393 49.0673C95.2041 45.5071 97.4693 42.4709 98.5055 38.8533L105.065 39.6178L105.062 39.6106Z" fill="black"/>
<path d="M125.76 1.6402C125.738 2.79583 126.074 3.86531 126.139 5.01735C126.406 10.0382 126.053 18.6587 124.877 23.475C123.748 28.0975 120.515 32.8528 121.49 37.7875L115.112 38.8247L114.484 37.4071C112.904 37.0266 111.493 38.778 110.235 38.8605C108.785 38.9539 107.177 36.8687 105.494 37.4752L104.862 38.8893L99.0236 37.9777L98.7128 37.5614C99.3523 31.7581 95.6936 26.6799 94.8076 21.092C94.2788 17.7435 94.6289 14.4489 94.0322 11.1328L94.4002 1.62944C95.5078 1.90578 96.7798 1.15212 97.7588 1.27055C99.4452 1.4787 102.307 6.09401 103.243 7.60493C104.279 9.27736 109.231 19.7246 109.91 19.8861C110.464 20.0189 110.646 19.4088 110.868 19.0642C113.926 14.3413 116.299 6.5821 120.425 2.53025C122.416 0.577894 123.312 1.62226 125.763 1.63662L125.76 1.6402Z" fill="black"/>
<path d="M35.8293 2.11385C36.1723 2.36867 36.1902 3.13669 36.9012 3.3592C39.2951 4.1021 38.9021 2.91059 39.8453 2.15692C41.2102 1.06949 42.7572 0.240455 44.5151 0C45.2011 1.05872 45.8121 2.32919 45.9264 3.60324C46.0372 4.79475 45.8335 8.77124 44.6009 9.10501C41.739 9.19473 39.9882 6.24107 37.1763 6.62867C36.083 6.77941 31.9384 9.87303 30.9595 9.35982C30.0448 8.43747 29.5303 5.92884 29.5374 4.67632C29.541 3.69655 30.5021 0.272755 31.4918 0.186622C32.578 0.0933111 34.9075 1.43197 35.8293 2.11385Z" fill="black"/>
<path d="M59.1141 25.9833C59.6608 26.5432 59.0605 26.6114 58.5782 26.6831C56.2665 27.0277 53.8798 27.0241 51.636 27.767C51.3252 27.3471 53.0366 23.4819 53.2724 23.4424L59.1177 25.9833H59.1141Z" fill="white"/>
</svg>
